<svg xmlns="http://www.w3.org/2000/svg" viewBox="0 0 252.64 28.47" fill="#fff" xmlns:v="https://vecta.io/nano"><path d="M63.15 23.15V9.87h-4.69V8.39H70v1.48h-4.77v13.28zM74.53 22a4.05 4.05 0 0 1-2.62 1.4 3 3 0 0 1-3-2.9v-.36c0-1.82 1.56-3 3.76-3.64l2.54-.8a2.17 2.17 0 0 0-2.11-2.12 4 4 0 0 0-2.75 1.14l-.72-.93a4.73 4.73 0 0 1 3.59-1.43c1.57 0 3.89.5 3.89 3.59v4.65a6.2 6.2 0 0 0 .47 2.59h-2.07a3.63 3.63 0 0 1-.3-1.78l-.68.59zm-1.14-4.48c-1.65.5-2.54 1.31-2.54 2.62a1.64 1.64 0 0 0 1.5 1.77h0c1.35 0 3.08-1.65 2.83-4.95l-1.82.55zm7.28-5.11l3.21 8.54h0l3.31-8.54 1.64.38L83.46 25c-1 2.24-2.28 3.42-4.1 3.42h-.93v-1.33h.72c1.31 0 2.24-.34 3.72-4.53l-4.15-9.64zm9.94 10.74V7.67h1.86v15.48zm4.27-5.37a5.21 5.21 0 0 1 10.41-.43v.43c0 3.26-2.07 5.67-5.2 5.67s-5.21-2.45-5.21-5.67zm2.08 0c0 2 .67 4.32 3.13 4.32s3.17-2.33 3.17-4.32-.76-4.06-3.17-4.06S97 15.88 97 17.78zm12.6-3.85l.76-.8a2.71 2.71 0 0 1 1.57-.76 2.61 2.61 0 0 1 1.73 1l-.84 1.23a3.63 3.63 0 0 0-1.4-.43c-1 0-1.78 1-1.78 3.3v5.67h-1.9V12.62h1.86zm25.54-3.8h-5.25v5.63H135v1.48h-5.16v6.18h-2V8.65h7.28zm4.52 4.06l.77-.8a2.77 2.77 0 0 1 1.56-.76 2.61 2.61 0 0 1 1.73 1l-.84 1.23a3.45 3.45 0 0 0-1.4-.42c-1 0-1.77 1-1.77 3.3v5.67h-1.91V12.88h1.86zM150 22.27a4.05 4.05 0 0 1-2.62 1.4 3 3 0 0 1-3-2.9v-.36c0-1.82 1.57-3 3.77-3.64l2.54-.8a2.17 2.17 0 0 0-2.12-2.12 4.05 4.05 0 0 0-2.73 1.15l-.72-.93a4.73 4.73 0 0 1 3.6-1.44c1.57 0 3.89.51 3.89 3.59v4.66a6.19 6.19 0 0 0 .47 2.58H151a3.74 3.74 0 0 1-.29-1.78l-.68.59zm-1.14-4.48c-1.65.51-2.54 1.31-2.54 2.62a1.65 1.65 0 0 0 1.5 1.78h0c1.36 0 3.09-1.65 2.84-5l-1.82.55zm8.66-3.6a5.19 5.19 0 0 1 3.59-1.56c2.42 0 3.73 1.35 3.73 4v6.81h-1.91v-6.37c0-2-.84-3-2.54-3a2.8 2.8 0 0 0-2.87 3v6.35h-1.9v-10.5h1.86zm18.57 8.38a6 6 0 0 1-3.17 1.1 5.26 5.26 0 0 1-5.63-5.54 5.35 5.35 0 0 1 5.19-5.51 4.51 4.51 0 0 1 .52 0 4.72 4.72 0 0 1 2.84.84l-.64 1.06A5 5 0 0 0 173 14a3.64 3.64 0 0 0-3.68 4c0 2.2 1.1 4.27 3.68 4.27a4.59 4.59 0 0 0 2.59-.76l.46 1.06zm1.78-13.16a1.12 1.12 0 1 1 0 .12.49.49 0 0 1 0-.12zm2.13 3.47v10.54h-1.9V12.88zm8.1 1.69a3.32 3.32 0 0 0-1.94-.67c-.68 0-1.52.33-1.52 1.18s1 1.31 2.15 2.24c1.36 1 2.25 1.91 2.25 3.39 0 1.77-1.74 3-3.69 3a4.6 4.6 0 0 1-3.25-1.31l.9-1.1a3.6 3.6 0 0 0 2.28 1.06c.89 0 1.78-.47 1.78-1.48 0-1.23-1.1-1.74-2.07-2.46-1.19-.84-2.25-1.56-2.25-3 0-1.65 1.65-2.71 3.52-2.71a3.84 3.84 0 0 1 2.58 1zm-67.62 7.32a3.1 3.1 0 0 0 .26-2H120a2.18 2.18 0 0 1 0 1.53l-2.26-2.1c-.68-.62-.94-1-.94-1.41s.32-.8 1-.8a1.76 1.76 0 0 1 1 .34l.34-.57a2.37 2.37 0 0 0-1.43-.48 1.71 1.71 0 0 0-1.97 1.6 2.23 2.23 0 0 0 .91 1.58 2.36 2.36 0 0 0-1.52 2 2.22 2.22 0 0 0 2.5 2.1 3.08 3.08 0 0 0 2.37-1.06l1.15 1.05.89-.44zM117.77 23a1.54 1.54 0 0 1-1.57-1.52h0a1.58 1.58 0 0 1 .91-1.45l2.38 2.14a2.26 2.26 0 0 1-1.72.83zm-83.84-9.31l.7-1.58H14.39l.64 1.58h18.9zm1.05-2.46l.64-1.58H13.34l.7 1.58h20.94zM24.22 8.19S23.93 5 27.84 0h0s-9.76 4.27-3.62 8.19zm17.2 6.26H5.85v-.88H1.11v.88H0l1.17 2.75h5.91a19.53 19.53 0 0 0 17.25 10.47 19.16 19.16 0 0 0 13.46-5.44c8.77.7 10.94-9.83 10.94-9.83zm-2.17 6.43a25.37 25.37 0 0 0 1.81-2.45 19.27 19.27 0 0 0 1.47-2.81l4.33-1.17c-2.58 5.91-6.5 6.38-7.61 6.43zm-35.8-9.3s3.8.18-.06-9.06c0 0-4.03 8.95.06 9.06zm208.28 2.5a5.25 5.25 0 0 1 3.6-1.57c2.41 0 3.72 1.36 3.72 4v6.81h-1.9V17c0-2-.85-3-2.54-3a2.83 2.83 0 0 0-2.89 2.76v.29 6.34h-1.9V12.81h1.86zm10.47 9.59V8.19h1.86v15.48zm5.01-14.17a1.19 1.19 0 0 1 2.37.16 1.19 1.19 0 0 1-1.19 1.11 1.17 1.17 0 0 1-1.19-1.15.49.49 0 0 1 .01-.12zm2.16 3.5v10.5h-1.91V13zm5.26 1.08a5.25 5.25 0 0 1 3.6-1.57c2.41 0 3.72 1.36 3.72 4v6.81H240V17c0-2-.84-3-2.53-3a2.83 2.83 0 0 0-2.89 2.76v.29 6.34h-1.9V12.81h1.86zm18.01 3.35c0-2.24-1-4.85-4-4.85S244 14.67 244 18s1.75 5.33 4.79 5.33h.08a8.79 8.79 0 0 0 3.24-.61h.08v-1.34l-.16.05a10.63 10.63 0 0 1-3.06.48c-2.31 0-3.16-1.93-3.2-3.63h6.9zm-6.91-.37a3.21 3.21 0 0 1 2.8-3.2A2.19 2.19 0 0 1 250.4 15a4.23 4.23 0 0 1 .6 2.1zm-51.43-.87a6.7 6.7 0 1 1 13.38-.57v.57c0 4.29-2.67 7.47-6.69 7.47s-6.69-3.18-6.69-7.47zm2 0c0 2.69 1 5.84 4.64 5.84s4.7-3.15 4.7-5.84-1.12-5.5-4.7-5.5-4.64 2.93-4.64 5.51z"/></svg>