<svg width="2186" height="1664" xmlns="http://www.w3.org/2000/svg" xmlns:xlink="http://www.w3.org/1999/xlink" xml:space="preserve" overflow="hidden"><g transform="translate(-528 -2)"><rect x="1208.5" y="19.5001" width="806" height="441" stroke="#0F254C" stroke-width="9.16667" stroke-linejoin="round" stroke-miterlimit="10" fill="#602989"/><text fill="#FFFFFF" font-family="Segoe UI,Segoe UI_MSFontService,sans-serif" font-weight="700" font-size="92" transform="matrix(1 0 0 1 1370 119)">Ontology</text><text fill="#FFFFFF" font-family="Segoe UI,Segoe UI_MSFontService,sans-serif" font-weight="700" font-size="92" transform="matrix(1 0 0 1 1799.33 119)">3</text><g><g><g><path d="M44.8992 84.6569 846.227 84.6569 846.227 1046.39 44.8992 1046.39Z" stroke="#0F254C" stroke-width="6.28358" stroke-linejoin="round" stroke-miterlimit="10" fill="#C6D6F0" transform="matrix(1 0 0 1.00069 486.186 615.801)"/><text font-family="Segoe UI,Segoe UI_MSFontService,sans-serif" font-weight="700" font-size="128" transform="matrix(0.685481 0 0 0.685956 699.475 806)">Ontology</text><text font-family="Segoe UI,Segoe UI_MSFontService,sans-serif" font-weight="700" font-size="128" transform="matrix(0.685481 0 0 0.685956 1112.67 806)">1</text><path d="M1422.72 84.6569 2224.73 84.6569 2224.73 1046.39 1422.72 1046.39Z" stroke="#0F254C" stroke-width="6.28358" stroke-linejoin="round" stroke-miterlimit="10" fill="#C6D6F0" transform="matrix(1 0 0 1.00069 486.186 615.801)"/><text font-family="Segoe UI,Segoe UI_MSFontService,sans-serif" font-weight="700" font-size="128" transform="matrix(0.685481 0 0 0.685956 2077.59 806)">Ontology</text><text font-family="Segoe UI,Segoe UI_MSFontService,sans-serif" font-weight="700" font-size="128" transform="matrix(0.685481 0 0 0.685956 2490.79 806)">2</text><path d="M471.268 333.487 774.251 333.487 774.251 440.422 471.268 440.422Z" stroke="#0F254C" stroke-width="6.28358" stroke-linejoin="round" stroke-miterlimit="10" fill="#3163B8" transform="matrix(1 0 0 1.00069 486.186 615.801)"/><text fill="#FFFFFF" font-family="Segoe UI,Segoe UI_MSFontService,sans-serif" font-weight="400" font-size="83" transform="matrix(0.685481 0 0 0.685956 1004.3 1024)">Concept</text><path d="M1502.92 333.487 1805.9 333.487 1805.9 440.422 1502.92 440.422Z" stroke="#0F254C" stroke-width="6.28358" stroke-linejoin="round" stroke-miterlimit="10" fill="#3163B8" transform="matrix(1 0 0 1.00069 486.186 615.801)"/><text fill="#FFFFFF" font-family="Segoe UI,Segoe UI_MSFontService,sans-serif" font-weight="400" font-size="83" transform="matrix(0.685481 0 0 0.685956 2036.14 1024)">Concept</text><path d="M483.264 724.896C490.646 724.896 496.631 718.912 496.631 711.53L483.264 711.53C486.956 711.53 489.948 708.534 489.948 704.846 489.948 701.151 486.956 698.163 483.264 698.163L496.631 698.163 496.631 524.393C496.631 517.011 502.615 511.026 509.998 511.026L759.513 511.026C766.896 511.026 772.88 517.011 772.88 524.393 772.88 531.776 766.896 537.76 759.513 537.76L746.146 537.76 746.146 711.53C746.146 718.912 740.162 724.896 732.78 724.896ZM523.365 524.393C523.365 531.776 517.381 537.76 509.998 537.76 506.307 537.76 503.315 534.768 503.315 531.077 503.315 527.385 506.307 524.393 509.998 524.393Z" fill="#3163B8" fill-rule="evenodd" transform="matrix(1 0 0 1.00069 486.186 615.801)"/><path d="M523.365 524.393C523.365 531.776 517.381 537.76 509.998 537.76 506.307 537.76 503.315 534.768 503.315 531.077 503.315 527.385 506.307 524.393 509.998 524.393ZM496.631 711.53C496.631 718.912 490.646 724.896 483.264 724.896 475.882 724.896 469.897 718.912 469.897 711.53 469.897 704.147 475.882 698.163 483.264 698.163 486.956 698.163 489.948 701.158 489.948 704.846 489.948 708.541 486.956 711.53 483.264 711.53Z" fill="#275094" fill-rule="evenodd" transform="matrix(1 0 0 1.00069 486.186 615.801)"/><path d="M496.631 698.163 496.631 524.393C496.631 517.011 502.615 511.026 509.998 511.026L759.513 511.026C766.896 511.026 772.88 517.011 772.88 524.393 772.88 531.776 766.896 537.76 759.513 537.76L746.146 537.76 746.146 711.53C746.146 718.912 740.162 724.896 732.78 724.896L483.264 724.896C475.882 724.896 469.897 718.912 469.897 711.53 469.897 704.147 475.882 698.163 483.264 698.163ZM509.998 511.026C517.38 511.026 523.365 517.011 523.365 524.393 523.365 531.776 517.38 537.76 509.998 537.76 506.307 537.76 503.315 534.768 503.315 531.077 503.315 527.385 506.307 524.393 509.998 524.393L523.365 524.393M746.146 537.76 509.998 537.76M483.264 698.163C486.956 698.163 489.948 701.158 489.948 704.846 489.948 708.541 486.956 711.53 483.264 711.53L496.631 711.53M483.264 724.896C490.646 724.896 496.631 718.912 496.631 711.53L496.631 698.163" stroke="#0F254C" stroke-width="6.28358" stroke-linejoin="round" stroke-miterlimit="10" fill="none" fill-rule="evenodd" transform="matrix(1 0 0 1.00069 486.186 615.801)"/><text fill="#FFFFFF" font-family="Segoe UI,Segoe UI_MSFontService,sans-serif" font-weight="400" font-size="83" transform="matrix(0.685481 0 0 0.685956 1009.53 1227)">Schema </text><text fill="#FFFFFF" font-family="Segoe UI,Segoe UI_MSFontService,sans-serif" font-weight="400" font-size="83" transform="matrix(0.685481 0 0 0.685956 1091.8 1295)">1</text><path d="M1516.28 722.155C1523.67 722.155 1529.65 716.17 1529.65 708.788L1516.28 708.788C1519.97 708.788 1522.97 705.792 1522.97 702.104 1522.97 698.416 1519.97 695.421 1516.28 695.421L1529.65 695.421 1529.65 521.651C1529.65 514.269 1535.64 508.284 1543.02 508.284L1791.85 508.284C1799.23 508.284 1805.22 514.269 1805.22 521.651 1805.22 529.034 1799.23 535.018 1791.85 535.018L1778.48 535.018 1778.48 708.788C1778.48 716.17 1772.5 722.155 1765.11 722.155ZM1556.39 521.651C1556.39 529.034 1550.4 535.018 1543.02 535.018 1539.33 535.018 1536.33 532.026 1536.33 528.335 1536.33 524.644 1539.33 521.652 1543.02 521.652Z" fill="#3163B8" fill-rule="evenodd" transform="matrix(1 0 0 1.00069 486.186 615.801)"/><path d="M1556.39 521.651C1556.39 529.034 1550.4 535.018 1543.02 535.018 1539.33 535.018 1536.33 532.026 1536.33 528.335 1536.33 524.644 1539.33 521.652 1543.02 521.652ZM1529.65 708.788C1529.65 716.17 1523.67 722.155 1516.28 722.155 1508.9 722.155 1502.92 716.17 1502.92 708.788 1502.92 701.405 1508.9 695.421 1516.28 695.421 1519.97 695.421 1522.97 698.409 1522.97 702.104 1522.97 705.792 1519.97 708.788 1516.28 708.788Z" fill="#275094" fill-rule="evenodd" transform="matrix(1 0 0 1.00069 486.186 615.801)"/><path d="M1529.65 695.421 1529.65 521.651C1529.65 514.269 1535.64 508.284 1543.02 508.284L1791.85 508.284C1799.23 508.284 1805.22 514.269 1805.22 521.651 1805.22 529.034 1799.23 535.018 1791.85 535.018L1778.48 535.018 1778.48 708.788C1778.48 716.17 1772.5 722.155 1765.11 722.155L1516.28 722.155C1508.9 722.155 1502.92 716.17 1502.92 708.788 1502.92 701.405 1508.9 695.421 1516.28 695.421ZM1543.02 508.284C1550.4 508.284 1556.39 514.269 1556.39 521.651 1556.39 529.034 1550.4 535.018 1543.02 535.018 1539.33 535.018 1536.33 532.026 1536.33 528.335 1536.33 524.644 1539.33 521.652 1543.02 521.652L1556.39 521.651M1778.48 535.018 1543.02 535.018M1516.28 695.421C1519.97 695.421 1522.97 698.416 1522.97 702.104 1522.97 705.792 1519.97 708.788 1516.28 708.788L1529.65 708.788M1516.28 722.155C1523.67 722.155 1529.65 716.17 1529.65 708.788L1529.65 695.421" stroke="#0F254C" stroke-width="6.28358" stroke-linejoin="round" stroke-miterlimit="10" fill="none" fill-rule="evenodd" transform="matrix(1 0 0 1.00069 486.186 615.801)"/><text fill="#FFFFFF" font-family="Segoe UI,Segoe UI_MSFontService,sans-serif" font-weight="400" font-size="83" transform="matrix(0.685481 0 0 0.685956 2042.32 1225)">Schema </text><text fill="#FFFFFF" font-family="Segoe UI,Segoe UI_MSFontService,sans-serif" font-weight="400" font-size="83" transform="matrix(0.685481 0 0 0.685956 2124.59 1293)">2</text><path d="M471.954 868.162C471.954 828.788 551.748 796.872 650.179 796.872 748.607 796.872 828.404 828.788 828.404 868.162 828.404 907.536 748.607 939.452 650.179 939.452 551.748 939.452 471.954 907.536 471.954 868.162Z" stroke="#0F254C" stroke-width="6.28358" stroke-linejoin="round" stroke-miterlimit="10" fill="#3163B8" fill-rule="evenodd" transform="matrix(1 0 0 1.00069 486.186 615.801)"/><text fill="#FFFFFF" font-family="Segoe UI,Segoe UI_MSFontService,sans-serif" font-weight="400" font-size="83" transform="matrix(0.685481 0 0 0.685956 1033.17 1505)">Instance</text><path d="M1449.45 868.162C1449.45 828.788 1529.09 796.872 1627.33 796.872 1725.58 796.872 1805.22 828.788 1805.22 868.162 1805.22 907.536 1725.58 939.452 1627.33 939.452 1529.09 939.452 1449.45 907.536 1449.45 868.162Z" stroke="#0F254C" stroke-width="6.28358" stroke-linejoin="round" stroke-miterlimit="10" fill="#3163B8" fill-rule="evenodd" transform="matrix(1 0 0 1.00069 486.186 615.801)"/><text fill="#FFFFFF" font-family="Segoe UI,Segoe UI_MSFontService,sans-serif" font-weight="400" font-size="83" transform="matrix(0.685481 0 0 0.685956 2010.1 1505)">Instance</text><path d="M1055.98 386.954C1055.98 347.582 1091.89 315.664 1136.19 315.664 1180.48 315.664 1216.39 347.582 1216.39 386.954 1216.39 426.327 1180.48 458.244 1136.19 458.244 1091.89 458.244 1055.98 426.327 1055.98 386.954Z" stroke="#0F254C" stroke-width="6.28358" stroke-linejoin="round" stroke-miterlimit="10" fill="#602989" fill-rule="evenodd" transform="matrix(1 0 0 1.00069 486.186 615.801)"/><text fill="#FFFFFF" font-family="Segoe UI,Segoe UI_MSFontService,sans-serif" font-weight="400" font-size="202" transform="matrix(0.685481 0 0 0.685956 1573.07 1042)">=</text><path d="M990.521 724.896C997.903 724.896 1003.89 718.912 1003.89 711.53L990.521 711.53C994.208 711.53 997.204 708.541 997.204 704.846 997.204 701.158 994.208 698.163 990.521 698.163L1003.89 698.163 1003.89 524.393C1003.89 517.011 1009.87 511.026 1017.25 511.026L1266.08 511.026C1273.47 511.026 1279.45 517.011 1279.45 524.393 1279.45 531.776 1273.47 537.76 1266.08 537.76L1252.72 537.76 1252.72 711.53C1252.72 718.912 1246.73 724.896 1239.35 724.896ZM1030.62 524.393C1030.62 531.776 1024.64 537.76 1017.25 537.76 1013.57 537.76 1010.57 534.768 1010.57 531.077 1010.57 527.386 1013.57 524.394 1017.25 524.394Z" fill="#602989" fill-rule="evenodd" transform="matrix(1 0 0 1.00069 486.186 615.801)"/><path d="M1030.62 524.393C1030.62 531.776 1024.64 537.76 1017.25 537.76 1013.57 537.76 1010.57 534.768 1010.57 531.077 1010.57 527.386 1013.57 524.394 1017.25 524.394ZM1003.89 711.53C1003.89 718.912 997.903 724.896 990.521 724.896 983.138 724.896 977.154 718.912 977.154 711.53 977.154 704.147 983.138 698.163 990.521 698.163 994.208 698.163 997.204 701.158 997.204 704.846 997.204 708.534 994.208 711.53 990.521 711.53Z" fill="#4D216E" fill-rule="evenodd" transform="matrix(1 0 0 1.00069 486.186 615.801)"/><path d="M1003.89 698.163 1003.89 524.393C1003.89 517.011 1009.87 511.026 1017.25 511.026L1266.08 511.026C1273.47 511.026 1279.45 517.011 1279.45 524.393 1279.45 531.776 1273.47 537.76 1266.08 537.76L1252.72 537.76 1252.72 711.53C1252.72 718.912 1246.73 724.896 1239.35 724.896L990.521 724.896C983.138 724.896 977.154 718.912 977.154 711.53 977.154 704.147 983.138 698.163 990.521 698.163ZM1017.25 511.026C1024.64 511.026 1030.62 517.011 1030.62 524.393 1030.62 531.776 1024.64 537.76 1017.25 537.76 1013.57 537.76 1010.57 534.768 1010.57 531.077 1010.57 527.386 1013.57 524.394 1017.25 524.394L1030.62 524.393M1252.72 537.76 1017.25 537.76M990.521 698.163C994.208 698.163 997.204 701.158 997.204 704.846 997.204 708.541 994.208 711.53 990.521 711.53L1003.89 711.53M990.521 724.896C997.903 724.896 1003.89 718.912 1003.89 711.53L1003.89 698.163" stroke="#0F254C" stroke-width="6.28358" stroke-linejoin="round" stroke-miterlimit="10" fill="none" fill-rule="evenodd" transform="matrix(1 0 0 1.00069 486.186 615.801)"/><text fill="#FFFFFF" font-family="Segoe UI,Segoe UI_MSFontService,sans-serif" font-weight="400" font-size="83" transform="matrix(0.685481 0 0 0.685956 1516.51 1227)">Schema </text><text fill="#FFFFFF" font-family="Segoe UI,Segoe UI_MSFontService,sans-serif" font-weight="400" font-size="83" transform="matrix(0.685481 0 0 0.685956 1598.77 1295)">3</text><path d="M772.695 818.06 772.825 817.299C772.908 816.826 773.058 816.367 773.278 815.942L773.669 815.181C773.833 814.859 774.039 814.557 774.272 814.276L774.923 813.516C775.094 813.317 775.273 813.138 775.471 812.967L776.376 812.206C776.575 812.042 776.781 811.891 777 811.761L779.55 810.239 783.615 808.443 788.413 806.812 793.993 805.249 800.375 803.734 807.538 802.26 815.476 800.814 824.147 799.408 833.545 798.03 843.622 796.687 854.356 795.385 865.715 794.123 877.663 792.896 890.18 791.724 903.218 790.6 916.749 789.524 930.747 788.502 945.176 787.536 959.996 786.631 975.186 785.795 990.706 785.02 1006.52 784.314 1022.6 783.677 1038.92 783.114 1072.1 782.237 1105.83 781.689 1139.81 781.503 1173.8 781.668 1207.52 782.162 1240.71 782.964 1257.04 783.464 1273.12 784.04 1288.93 784.677 1304.44 785.376 1319.63 786.137 1334.45 786.953 1348.87 787.824 1362.87 788.749 1376.39 789.716 1389.43 790.737 1401.93 791.799 1413.87 792.896 1425.23 794.041 1435.95 795.22 1446.02 796.426 1455.39 797.667 1464.05 798.942 1471.95 800.238 1481.55 802.877 1479.03 811.959 1470.43 809.54 1462.68 808.265 1454.15 807.01 1444.89 805.783 1434.92 804.584 1424.29 803.418 1413.01 802.287 1401.14 801.191 1388.7 800.135 1375.72 799.12 1362.24 798.154 1348.3 797.235 1333.93 796.365 1319.16 795.549 1304.02 794.795 1288.55 794.096 1272.78 793.458 1256.74 792.889 1240.49 792.382 1207.39 791.587 1173.76 791.093 1139.87 790.922 1105.98 791.114 1072.35 791.656 1039.24 792.54 1022.98 793.095 1006.94 793.726 991.179 794.432 975.707 795.206 960.572 796.043 945.807 796.941 931.432 797.9 917.496 798.915 904.026 799.991 891.057 801.108 878.623 802.274 866.757 803.487 855.494 804.741 844.863 806.03 834.909 807.353 825.662 808.71 817.155 810.088 809.437 811.493 802.541 812.905 796.522 814.331 791.429 815.737 787.344 817.101 784.383 818.334 781.833 819.856 782.456 819.411 781.552 820.172 782.1 819.623 781.449 820.391 782.052 819.493 781.661 820.254 782.114 818.903 781.977 819.664ZM1480.86 792.526 1502.34 815.723 1470.9 818.992Z" fill="#602989" transform="matrix(1 0 0 1.00069 486.186 615.801)"/><path d="M1507.02 917.064 1506.89 918.134C1506.85 918.497 1506.76 918.846 1506.63 919.182L1506.24 920.252C1506.13 920.54 1506 920.821 1505.84 921.081L1505.19 922.144C1505.06 922.356 1504.92 922.555 1504.76 922.74L1503.86 923.81C1503.68 924.015 1503.49 924.207 1503.28 924.378L1500.73 926.503C1500.55 926.661 1500.35 926.798 1500.14 926.922L1496.63 929.033 1491.77 931.357 1486.13 933.557 1479.7 935.689 1472.49 937.766 1464.52 939.788 1455.82 941.769 1446.4 943.695 1436.3 945.574 1425.54 947.404 1414.17 949.165 1402.2 950.879 1389.68 952.517 1376.62 954.094 1363.07 955.595 1349.07 957.028 1334.63 958.371 1319.79 959.64 1304.59 960.812 1289.07 961.895 1273.24 962.882 1257.15 963.773 1240.82 964.554 1207.63 965.788 1173.89 966.549 1139.87 966.81 1105.87 966.57 1072.13 965.857 1038.92 964.712 1022.58 963.986 1006.49 963.156 990.664 962.238 975.145 961.23 959.948 960.133 945.114 958.961 930.685 957.706 916.68 956.377 903.135 954.978 890.091 953.511 877.574 951.983 865.612 950.392 854.247 948.754 843.505 947.054 833.422 945.313 824.024 943.517 815.339 941.687 807.401 939.809 796.2 935.579 799.559 926.771 809.574 930.637 817.293 932.467 825.786 934.263 835.033 936.025 844.979 937.745 855.597 939.425 866.86 941.049 878.719 942.626 891.146 944.148 904.109 945.601 917.572 946.992 931.501 948.315 945.861 949.563 960.627 950.735 975.755 951.825 991.213 952.826 1006.97 953.744 1023 954.567 1039.24 955.294 1072.33 956.432 1105.93 957.144 1139.8 957.384 1173.67 957.124 1207.28 956.363 1240.37 955.136 1256.63 954.361 1272.65 953.477 1288.41 952.497 1303.87 951.414 1319 950.248 1333.75 948.987 1348.11 947.65 1362.04 946.232 1375.49 944.737 1388.45 943.174 1400.87 941.543 1412.72 939.857 1423.96 938.109 1434.58 936.306 1444.51 934.462 1453.73 932.577 1462.21 930.657 1469.89 928.704 1476.74 926.743 1482.72 924.776 1487.75 922.829 1491.77 920.958 1495.28 918.846 1494.7 919.265 1497.25 917.14 1496.67 917.709 1497.57 916.646 1497.15 917.243 1497.79 916.173 1497.39 916.996 1497.79 915.926 1497.54 916.982 1497.67 915.913ZM795.055 945.807 777.336 919.628 808.909 921.157Z" fill="#602989" transform="matrix(1 0 0 1.00069 486.186 615.801)"/><path d="M797.468 381.899 1032.17 381.899 1032.17 391.324 797.468 391.324ZM802.185 400.75 773.908 386.611 802.185 372.473ZM1027.46 372.473 1055.74 386.611 1027.46 400.75Z" fill="#602989" transform="matrix(1 0 0 1.00069 486.186 615.801)"/><path d="M1239.61 381.899 1479.34 381.899 1479.34 391.324 1239.61 391.324ZM1244.32 400.75 1216.04 386.611 1244.32 372.473ZM1474.63 372.473 1502.9 386.611 1474.63 400.75Z" fill="#602989" transform="matrix(1 0 0 1.00069 486.186 615.801)"/><path d="M745.804 612.906 979.827 612.906 979.827 622.331 745.804 622.331ZM975.111 603.481 1003.39 617.619 975.111 631.757Z" fill="#602989" transform="matrix(1 0 0 1.00069 486.186 615.801)"/><path d="M0.0369664-4.71254 252.897-2.72904 252.823 6.69603-0.0369664 4.71254ZM248.258-12.1911 276.422 2.16833 248.037 16.0841Z" fill="#602989" transform="matrix(-1 0 0 1.00069 2014.98 1231.1)"/><text font-family="Segoe UI,Segoe UI_MSFontService,sans-serif" font-weight="700" font-size="83" transform="matrix(0.685481 0 0 0.685956 1452.3 1502)">Relationship</text></g></g></g><path d="M915.125 693.775 915.125 652.525 928.875 652.525 928.875 693.775ZM915.125 638.775 915.125 597.525 928.875 597.525 928.875 638.775ZM915.125 583.775 915.125 542.525 928.875 542.525 928.875 583.775ZM915.125 528.775 915.125 487.525 928.875 487.525 928.875 528.775ZM915.125 473.775 915.125 432.525 928.875 432.525 928.875 473.775ZM915.125 418.775 915.125 377.525 928.875 377.525 928.875 418.775ZM915.125 363.775 915.125 322.525 928.875 322.525 928.875 363.775ZM915.125 308.775 915.125 267.525 928.875 267.525 928.875 308.775ZM915.125 253.775 915.125 239C915.125 235.203 918.203 232.125 922 232.125L948.475 232.125 948.475 245.875 922 245.875 928.875 239 928.875 253.775ZM962.225 232.125 1003.47 232.125 1003.47 245.875 962.225 245.875ZM1017.22 232.125 1058.47 232.125 1058.47 245.875 1017.22 245.875ZM1072.22 232.125 1113.47 232.125 1113.47 245.875 1072.22 245.875ZM1127.22 232.125 1168.47 232.125 1168.47 245.875 1127.22 245.875ZM1166.61 218.375 1207.86 239 1166.61 259.625Z"/><path d="M0-6.875 41.25-6.875 41.25 6.875 0 6.875ZM55-6.875 96.25-6.875 96.25 6.875 55 6.875ZM110-6.875 151.25-6.875 151.25 6.875 110 6.875ZM165-6.875 206.25-6.875 206.25 6.875 165 6.875ZM220-6.875 261.25-6.875 261.25 6.875 220 6.875ZM275-6.875 316.25-6.875 316.25 6.875 275 6.875ZM330-6.875 371.25-6.875 371.25 6.875 330 6.875ZM385-6.875 426.25-6.875 426.25 6.875 385 6.875ZM440-6.875 454.775-6.875C458.572-6.875 461.65-3.79696 461.65 0L461.65 26.4751 447.9 26.4751 447.9 0 454.775 6.875 440 6.875ZM461.65 40.2251 461.65 81.4751 447.9 81.4751 447.9 40.2251ZM461.65 95.2251 461.65 136.475 447.9 136.475 447.9 95.2251ZM461.65 150.225 461.65 191.475 447.9 191.475 447.9 150.225ZM461.65 205.225 461.65 246.475 447.9 246.475 447.9 205.225ZM475.4 244.609 454.775 285.859 434.15 244.609Z" transform="matrix(-1.83697e-16 -1 -1 1.83697e-16 2299.86 693.775)"/><path d="M6.875-8.67959e-06 6.87505 41.25-6.87495 41.25-6.875 8.67959e-06ZM6.87507 55 6.87512 96.25-6.87488 96.25-6.87493 55ZM6.87514 110 6.87519 151.25-6.87481 151.25-6.87486 110ZM6.87521 165 6.87526 206.25-6.87474 206.25-6.87479 165ZM6.87528 220 6.87532 251.484-6.87468 251.484-6.87472 220ZM20.6253 244.609 0.000360892 285.859-20.6247 244.609Z" transform="matrix(1 0 0 -1 1611 745.858)"/><path d="M1462 850C1462 828.461 1464.91 811 1468.5 811L1604.5 811C1608.09 811 1611 793.539 1611 772 1611 793.539 1613.91 811 1617.5 811L1753.5 811C1757.09 811 1760 828.461 1760 850" stroke="#000000" stroke-width="10.3125" stroke-linejoin="round" stroke-miterlimit="10" fill="none" fill-rule="evenodd"/></g></svg>