<svg width="3189" height="1417" xmlns="http://www.w3.org/2000/svg" xmlns:xlink="http://www.w3.org/1999/xlink" xml:space="preserve" overflow="hidden"><g transform="translate(-61 -114)"><rect x="65.5002" y="123.5" width="1169" height="1403" stroke="#0F254C" stroke-width="9.16667" stroke-linejoin="round" stroke-miterlimit="10" fill="#C6D6F0"/><text font-family="Segoe UI,Segoe UI_MSFontService,sans-serif" font-weight="700" font-size="128" transform="matrix(1 0 0 1 311.153 278)">Ontology</text><text font-family="Segoe UI,Segoe UI_MSFontService,sans-serif" font-weight="700" font-size="128" transform="matrix(1 0 0 1 913.931 278)">1</text><rect x="2075.5" y="123.5" width="1170" height="1403" stroke="#0F254C" stroke-width="9.16667" stroke-linejoin="round" stroke-miterlimit="10" fill="#C6D6F0"/><text font-family="Segoe UI,Segoe UI_MSFontService,sans-serif" font-weight="700" font-size="128" transform="matrix(1 0 0 1 2321.59 278)">Ontology</text><text font-family="Segoe UI,Segoe UI_MSFontService,sans-serif" font-weight="700" font-size="128" transform="matrix(1 0 0 1 2924.37 278)">2</text><rect x="687.5" y="486.5" width="442" height="156" stroke="#0F254C" stroke-width="9.16667" stroke-linejoin="round" stroke-miterlimit="10" fill="#3163B8"/><text fill="#FFFFFF" font-family="Segoe UI,Segoe UI_MSFontService,sans-serif" font-weight="400" font-size="83" transform="matrix(1 0 0 1 755.845 595)">Concept</text><rect x="2192.5" y="486.5" width="442" height="156" stroke="#0F254C" stroke-width="9.16667" stroke-linejoin="round" stroke-miterlimit="10" fill="#3163B8"/><text fill="#FFFFFF" font-family="Segoe UI,Segoe UI_MSFontService,sans-serif" font-weight="400" font-size="83" transform="matrix(1 0 0 1 2261.12 595)">Concept</text><path d="M705 1057.5C715.769 1057.5 724.5 1048.77 724.5 1038L705 1038C710.385 1038 714.75 1033.63 714.75 1028.25 714.75 1022.86 710.385 1018.5 705 1018.5L724.5 1018.5 724.5 765C724.5 754.231 733.23 745.5 744 745.5L1108 745.5C1118.77 745.5 1127.5 754.231 1127.5 765 1127.5 775.77 1118.77 784.5 1108 784.5L1088.5 784.5 1088.5 1038C1088.5 1048.77 1079.77 1057.5 1069 1057.5ZM763.5 765C763.5 775.77 754.77 784.5 744 784.5 738.615 784.5 734.25 780.135 734.25 774.75 734.25 769.365 738.615 765 744 765Z" fill="#3163B8" fill-rule="evenodd"/><path d="M763.5 765C763.5 775.77 754.77 784.5 744 784.5 738.615 784.5 734.25 780.135 734.25 774.75 734.25 769.365 738.615 765 744 765ZM724.5 1038C724.5 1048.77 715.769 1057.5 705 1057.5 694.23 1057.5 685.5 1048.77 685.5 1038 685.5 1027.23 694.23 1018.5 705 1018.5 710.385 1018.5 714.75 1022.87 714.75 1028.25 714.75 1033.64 710.385 1038 705 1038Z" fill="#275094" fill-rule="evenodd"/><path d="M724.5 1018.5 724.5 765C724.5 754.231 733.23 745.5 744 745.5L1108 745.5C1118.77 745.5 1127.5 754.231 1127.5 765 1127.5 775.77 1118.77 784.5 1108 784.5L1088.5 784.5 1088.5 1038C1088.5 1048.77 1079.77 1057.5 1069 1057.5L705 1057.5C694.23 1057.5 685.5 1048.77 685.5 1038 685.5 1027.23 694.23 1018.5 705 1018.5ZM744 745.5C754.769 745.5 763.5 754.231 763.5 765 763.5 775.77 754.769 784.5 744 784.5 738.615 784.5 734.25 780.135 734.25 774.75 734.25 769.365 738.615 765 744 765L763.5 765M1088.5 784.5 744 784.5M705 1018.5C710.385 1018.5 714.75 1022.87 714.75 1028.25 714.75 1033.64 710.385 1038 705 1038L724.5 1038M705 1057.5C715.769 1057.5 724.5 1048.77 724.5 1038L724.5 1018.5" stroke="#0F254C" stroke-width="9.16667" stroke-linejoin="round" stroke-miterlimit="10" fill="none" fill-rule="evenodd"/><text fill="#FFFFFF" font-family="Segoe UI,Segoe UI_MSFontService,sans-serif" font-weight="400" font-size="83" transform="matrix(1 0 0 1 763.467 891)">Schema </text><text fill="#FFFFFF" font-family="Segoe UI,Segoe UI_MSFontService,sans-serif" font-weight="400" font-size="83" transform="matrix(1 0 0 1 883.482 990)">1</text><path d="M2212 1053.5C2222.77 1053.5 2231.5 1044.77 2231.5 1034L2212 1034C2217.38 1034 2221.75 1029.63 2221.75 1024.25 2221.75 1018.87 2217.38 1014.5 2212 1014.5L2231.5 1014.5 2231.5 761C2231.5 750.23 2240.23 741.5 2251 741.5L2614 741.5C2624.77 741.5 2633.5 750.23 2633.5 761 2633.5 771.77 2624.77 780.5 2614 780.5L2594.5 780.5 2594.5 1034C2594.5 1044.77 2585.77 1053.5 2575 1053.5ZM2270.5 761C2270.5 771.77 2261.77 780.5 2251 780.5 2245.62 780.5 2241.25 776.135 2241.25 770.75 2241.25 765.366 2245.62 761.001 2251 761.001Z" fill="#3163B8" fill-rule="evenodd"/><path d="M2270.5 761C2270.5 771.77 2261.77 780.5 2251 780.5 2245.62 780.5 2241.25 776.135 2241.25 770.75 2241.25 765.366 2245.62 761.001 2251 761.001ZM2231.5 1034C2231.5 1044.77 2222.77 1053.5 2212 1053.5 2201.23 1053.5 2192.5 1044.77 2192.5 1034 2192.5 1023.23 2201.23 1014.5 2212 1014.5 2217.38 1014.5 2221.75 1018.86 2221.75 1024.25 2221.75 1029.63 2217.38 1034 2212 1034Z" fill="#275094" fill-rule="evenodd"/><path d="M2231.5 1014.5 2231.5 761C2231.5 750.23 2240.23 741.5 2251 741.5L2614 741.5C2624.77 741.5 2633.5 750.23 2633.5 761 2633.5 771.77 2624.77 780.5 2614 780.5L2594.5 780.5 2594.5 1034C2594.5 1044.77 2585.77 1053.5 2575 1053.5L2212 1053.5C2201.23 1053.5 2192.5 1044.77 2192.5 1034 2192.5 1023.23 2201.23 1014.5 2212 1014.5ZM2251 741.5C2261.77 741.5 2270.5 750.23 2270.5 761 2270.5 771.77 2261.77 780.5 2251 780.5 2245.62 780.5 2241.25 776.135 2241.25 770.75 2241.25 765.366 2245.62 761.001 2251 761.001L2270.5 761M2594.5 780.5 2251 780.5M2212 1014.5C2217.38 1014.5 2221.75 1018.87 2221.75 1024.25 2221.75 1029.63 2217.38 1034 2212 1034L2231.5 1034M2212 1053.5C2222.77 1053.5 2231.5 1044.77 2231.5 1034L2231.5 1014.5" stroke="#0F254C" stroke-width="9.16667" stroke-linejoin="round" stroke-miterlimit="10" fill="none" fill-rule="evenodd"/><text fill="#FFFFFF" font-family="Segoe UI,Segoe UI_MSFontService,sans-serif" font-weight="400" font-size="83" transform="matrix(1 0 0 1 2270.13 888)">Schema </text><text fill="#FFFFFF" font-family="Segoe UI,Segoe UI_MSFontService,sans-serif" font-weight="400" font-size="83" transform="matrix(1 0 0 1 2390.15 987)">2</text><path d="M688.5 1266.5C688.5 1209.06 804.906 1162.5 948.5 1162.5 1092.09 1162.5 1208.5 1209.06 1208.5 1266.5 1208.5 1323.94 1092.09 1370.5 948.5 1370.5 804.906 1370.5 688.5 1323.94 688.5 1266.5Z" stroke="#0F254C" stroke-width="9.16667" stroke-linejoin="round" stroke-miterlimit="10" fill="#3163B8" fill-rule="evenodd"/><text fill="#FFFFFF" font-family="Segoe UI,Segoe UI_MSFontService,sans-serif" font-weight="400" font-size="83" transform="matrix(1 0 0 1 797.956 1296)">Instance</text><path d="M2114.5 1266.5C2114.5 1209.06 2230.68 1162.5 2374 1162.5 2517.32 1162.5 2633.5 1209.06 2633.5 1266.5 2633.5 1323.94 2517.32 1370.5 2374 1370.5 2230.68 1370.5 2114.5 1323.94 2114.5 1266.5Z" stroke="#0F254C" stroke-width="9.16667" stroke-linejoin="round" stroke-miterlimit="10" fill="#3163B8" fill-rule="evenodd"/><text fill="#FFFFFF" font-family="Segoe UI,Segoe UI_MSFontService,sans-serif" font-weight="400" font-size="83" transform="matrix(1 0 0 1 2223.13 1296)">Instance</text><path d="M1540.5 564.5C1540.5 507.062 1592.88 460.5 1657.5 460.5 1722.12 460.5 1774.5 507.062 1774.5 564.5 1774.5 621.938 1722.12 668.5 1657.5 668.5 1592.88 668.5 1540.5 621.938 1540.5 564.5Z" stroke="#0F254C" stroke-width="9.16667" stroke-linejoin="round" stroke-miterlimit="10" fill="#602989" fill-rule="evenodd"/><text fill="#FFFFFF" font-family="Segoe UI,Segoe UI_MSFontService,sans-serif" font-weight="400" font-size="202" transform="matrix(1 0 0 1 1585.58 621)">=</text><path d="M1445 1057.5C1455.77 1057.5 1464.5 1048.77 1464.5 1038L1445 1038C1450.38 1038 1454.75 1033.64 1454.75 1028.25 1454.75 1022.87 1450.38 1018.5 1445 1018.5L1464.5 1018.5 1464.5 765C1464.5 754.231 1473.23 745.5 1484 745.5L1847 745.5C1857.77 745.5 1866.5 754.231 1866.5 765 1866.5 775.77 1857.77 784.5 1847 784.5L1827.5 784.5 1827.5 1038C1827.5 1048.77 1818.77 1057.5 1808 1057.5ZM1503.5 765C1503.5 775.77 1494.77 784.5 1484 784.5 1478.62 784.5 1474.25 780.135 1474.25 774.751 1474.25 769.366 1478.62 765.001 1484 765.001Z" fill="#602989" fill-rule="evenodd"/><path d="M1503.5 765C1503.5 775.77 1494.77 784.5 1484 784.5 1478.62 784.5 1474.25 780.135 1474.25 774.751 1474.25 769.366 1478.62 765.001 1484 765.001ZM1464.5 1038C1464.5 1048.77 1455.77 1057.5 1445 1057.5 1434.23 1057.5 1425.5 1048.77 1425.5 1038 1425.5 1027.23 1434.23 1018.5 1445 1018.5 1450.38 1018.5 1454.75 1022.87 1454.75 1028.25 1454.75 1033.63 1450.38 1038 1445 1038Z" fill="#4D216E" fill-rule="evenodd"/><path d="M1464.5 1018.5 1464.5 765C1464.5 754.231 1473.23 745.5 1484 745.5L1847 745.5C1857.77 745.5 1866.5 754.231 1866.5 765 1866.5 775.77 1857.77 784.5 1847 784.5L1827.5 784.5 1827.5 1038C1827.5 1048.77 1818.77 1057.5 1808 1057.5L1445 1057.5C1434.23 1057.5 1425.5 1048.77 1425.5 1038 1425.5 1027.23 1434.23 1018.5 1445 1018.5ZM1484 745.5C1494.77 745.5 1503.5 754.231 1503.5 765 1503.5 775.77 1494.77 784.5 1484 784.5 1478.62 784.5 1474.25 780.135 1474.25 774.751 1474.25 769.366 1478.62 765.001 1484 765.001L1503.5 765M1827.5 784.5 1484 784.5M1445 1018.5C1450.38 1018.5 1454.75 1022.87 1454.75 1028.25 1454.75 1033.64 1450.38 1038 1445 1038L1464.5 1038M1445 1057.5C1455.77 1057.5 1464.5 1048.77 1464.5 1038L1464.5 1018.5" stroke="#0F254C" stroke-width="9.16667" stroke-linejoin="round" stroke-miterlimit="10" fill="none" fill-rule="evenodd"/><text fill="#FFFFFF" font-family="Segoe UI,Segoe UI_MSFontService,sans-serif" font-weight="400" font-size="83" transform="matrix(1 0 0 1 1503.06 891)">Schema </text><text fill="#FFFFFF" font-family="Segoe UI,Segoe UI_MSFontService,sans-serif" font-weight="400" font-size="83" transform="matrix(1 0 0 1 1623.07 990)">3</text><path d="M1127.23 1193.41 1127.42 1192.3C1127.54 1191.61 1127.76 1190.94 1128.08 1190.32L1128.65 1189.21C1128.89 1188.74 1129.19 1188.3 1129.53 1187.89L1130.48 1186.78C1130.73 1186.49 1130.99 1186.23 1131.28 1185.98L1132.6 1184.87C1132.89 1184.63 1133.19 1184.41 1133.51 1184.22L1137.23 1182 1143.16 1179.38 1150.16 1177 1158.3 1174.72 1167.61 1172.51 1178.06 1170.36 1189.64 1168.25 1202.29 1166.2 1216 1164.19 1230.7 1162.23 1246.36 1160.33 1262.93 1158.49 1280.36 1156.7 1298.62 1154.99 1317.64 1153.35 1337.38 1151.78 1357.8 1150.29 1378.85 1148.88 1400.47 1147.56 1422.63 1146.34 1445.27 1145.21 1468.34 1144.18 1491.8 1143.25 1515.6 1142.43 1564.01 1141.15 1613.21 1140.35 1662.79 1140.08 1712.38 1140.32 1761.57 1141.04 1809.99 1142.21 1833.8 1142.94 1857.26 1143.78 1880.33 1144.71 1902.96 1145.73 1925.11 1146.84 1946.73 1148.03 1967.77 1149.3 1988.19 1150.65 2007.92 1152.06 2026.94 1153.55 2045.18 1155.1 2062.6 1156.7 2079.16 1158.37 2094.8 1160.09 2109.49 1161.85 2123.17 1163.66 2135.8 1165.52 2147.33 1167.41 2161.33 1171.26 2157.65 1184.51 2145.1 1180.98 2133.8 1179.12 2121.36 1177.29 2107.85 1175.5 2093.31 1173.75 2077.79 1172.05 2061.34 1170.4 2044.02 1168.8 2025.87 1167.26 2006.94 1165.78 1987.28 1164.37 1966.94 1163.03 1945.98 1161.76 1924.43 1160.57 1902.34 1159.47 1879.77 1158.45 1856.77 1157.52 1833.37 1156.69 1809.66 1155.95 1761.37 1154.79 1712.31 1154.07 1662.87 1153.82 1613.43 1154.1 1564.37 1154.89 1516.08 1156.18 1492.35 1156.99 1468.96 1157.91 1445.96 1158.94 1423.39 1160.07 1401.31 1161.29 1379.77 1162.6 1358.8 1164 1338.47 1165.48 1318.82 1167.05 1299.9 1168.68 1281.76 1170.38 1264.45 1172.15 1248.02 1173.98 1232.51 1175.86 1217.99 1177.79 1204.5 1179.77 1192.09 1181.78 1180.83 1183.83 1170.77 1185.89 1161.99 1187.97 1154.56 1190.02 1148.6 1192.01 1144.28 1193.81 1140.56 1196.03 1141.47 1195.38 1140.15 1196.49 1140.95 1195.69 1140 1196.81 1140.88 1195.5 1140.31 1196.61 1140.97 1194.64 1140.77 1195.75ZM2160.32 1156.16 2191.66 1190 2145.79 1194.77Z" fill="#602989"/><path d="M2198.48 1337.84 2198.29 1339.4C2198.23 1339.93 2198.1 1340.44 2197.92 1340.93L2197.35 1342.49C2197.19 1342.91 2197 1343.32 2196.77 1343.7L2195.82 1345.25C2195.63 1345.56 2195.42 1345.85 2195.19 1346.12L2193.87 1347.68C2193.61 1347.98 2193.33 1348.26 2193.03 1348.51L2189.31 1351.61C2189.04 1351.84 2188.75 1352.04 2188.45 1352.22L2183.33 1355.3 2176.24 1358.69 2168.01 1361.9 2158.63 1365.01 2148.11 1368.04 2136.49 1370.99 2123.79 1373.88 2110.05 1376.69 2095.31 1379.43 2079.62 1382.1 2063.03 1384.67 2045.57 1387.17 2027.3 1389.56 2008.25 1391.86 1988.49 1394.05 1968.06 1396.14 1946.99 1398.1 1925.35 1399.95 1903.18 1401.66 1880.53 1403.24 1857.44 1404.68 1833.96 1405.98 1810.15 1407.12 1761.73 1408.92 1712.5 1410.03 1662.88 1410.41 1613.27 1410.06 1564.05 1409.02 1515.6 1407.35 1491.77 1406.29 1468.3 1405.08 1445.21 1403.74 1422.57 1402.27 1400.4 1400.67 1378.76 1398.96 1357.71 1397.13 1337.28 1395.19 1317.52 1393.15 1298.49 1391.01 1280.23 1388.78 1262.78 1386.46 1246.2 1384.07 1230.53 1381.59 1215.82 1379.05 1202.11 1376.43 1189.44 1373.76 1177.86 1371.02 1161.52 1364.85 1166.42 1352 1181.03 1357.64 1192.29 1360.31 1204.68 1362.93 1218.17 1365.5 1232.68 1368.01 1248.17 1370.46 1264.6 1372.83 1281.9 1375.13 1300.03 1377.35 1318.94 1379.47 1338.58 1381.5 1358.9 1383.43 1379.85 1385.25 1401.39 1386.96 1423.46 1388.55 1446.01 1390.01 1469 1391.35 1492.38 1392.55 1516.08 1393.61 1564.34 1395.27 1613.37 1396.31 1662.78 1396.66 1712.19 1396.28 1761.22 1395.17 1809.49 1393.38 1833.21 1392.25 1856.58 1390.96 1879.57 1389.53 1902.12 1387.95 1924.19 1386.25 1945.72 1384.41 1966.66 1382.46 1986.98 1380.39 2006.61 1378.21 2025.51 1375.93 2043.63 1373.55 2060.92 1371.09 2077.32 1368.54 2092.8 1365.91 2107.29 1363.22 2120.74 1360.47 2133.11 1357.67 2144.32 1354.82 2154.31 1351.96 2163.03 1349.09 2170.37 1346.25 2176.24 1343.52 2181.36 1340.44 2180.51 1341.05 2184.23 1337.95 2183.38 1338.78 2184.7 1337.23 2184.08 1338.1 2185.02 1336.54 2184.44 1337.74 2185.02 1336.18 2184.65 1337.72 2184.84 1336.16ZM1159.85 1379.77 1134 1341.58 1180.06 1343.81Z" fill="#602989"/><path d="M1163.37 557.125 1505.76 557.125 1505.76 570.875 1163.37 570.875ZM1170.25 584.625 1129 564 1170.25 543.375ZM1498.89 543.375 1540.14 564 1498.89 584.625Z" fill="#602989"/><path d="M1808.38 557.125 2158.1 557.125 2158.1 570.875 1808.38 570.875ZM1815.25 584.625 1774 564 1815.25 543.375ZM2151.23 543.375 2192.48 564 2151.23 584.625Z" fill="#602989"/><path d="M1088 894.125 1429.4 894.125 1429.4 907.875 1088 907.875ZM1422.52 880.375 1463.77 901 1422.52 921.625Z" fill="#602989"/><path d="M0.0539276-6.87479 368.933-3.9812 368.825 9.76837-0.0539276 6.87479ZM362.166-17.7847 403.253 3.16322 361.843 23.464Z" fill="#602989" transform="matrix(-1 0 0 1 2230.25 897)"/><text font-family="Segoe UI,Segoe UI_MSFontService,sans-serif" font-weight="700" font-size="83" transform="matrix(1 0 0 1 1409.39 1292)">Relationship</text></g></svg>