<?xml version="1.0" encoding="UTF-8"?>
<svg viewBox="0 0 909 760" version="1.1" xmlns="http://www.w3.org/2000/svg" xmlns:xlink="http://www.w3.org/1999/xlink">
    <!-- Generator: Sketch 53 (72520) - https://sketchapp.com -->
    <title>DBA Content Management </title>
    <desc>Created with Sketch.</desc>
    <g id="Page-1" stroke="none" stroke-width="1" fill="none" fill-rule="evenodd">
        <path d="M611.7,507.5 L611.7,622.5" id="Path" stroke="#4478BA" stroke-width="0.534"></path>
        <path d="M611.7,411.8 L611.7,497.7" id="Path" stroke="#4478BA" stroke-width="0.534"></path>
        <rect id="Rectangle" stroke="#4478BA" stroke-width="2" x="1.7" y="2" width="905.2" height="756.1"></rect>
        <path d="M611.7,0 L611.7,77" id="Path" stroke="#4478BA" stroke-width="0.5"></path>
        <path d="M611.7,111 L611.7,308.4" id="Path" stroke="#4478BA" stroke-width="0.5"></path>
        <path d="M234.6,3.3 L234.6,303.8" id="Path" stroke="#4478BA" stroke-width="0.5"></path>
        <path d="M234.6,421.1 L234.6,622" id="Path" stroke="#4478BA" stroke-width="0.5"></path>
        <path d="M611.7,726 L611.7,758.1" id="Path" stroke="#4478BA" stroke-width="0.5"></path>
        <path d="M234.6,726 L234.6,758.1" id="Path" stroke="#4478BA" stroke-width="0.5"></path>
        <g id="Group" transform="translate(238.000000, 4.000000)">
            <rect id="Rectangle" x="0.6" y="1.4" width="169.3" height="10.1"></rect>
            <text id="CLOUD-NETWORK" fill="#4478BA" font-family="HelvNeueMediumforIBM, HelvNeue Medium for IBM" font-size="12" font-weight="normal">
                <tspan x="0.5801" y="9.9645">CLOUD NETWORK</tspan>
            </text>
        </g>
        <g id="Group" transform="translate(4.000000, 4.000000)">
            <rect id="Rectangle" x="1" y="1.4" width="119.1" height="12.7"></rect>
            <text id="PUBLIC-NETWORK" fill="#4478BA" font-family="HelvNeueMediumforIBM, HelvNeue Medium for IBM" font-size="12" font-weight="normal">
                <tspan x="2.8363" y="9.9655">PUBLIC NETWORK</tspan>
            </text>
        </g>
        <g id="Group" transform="translate(616.000000, 4.000000)">
            <rect id="Rectangle" x="0.3" y="0.5" width="145.3" height="8.7"></rect>
            <text id="ENTERPRISE-NETWORK" fill="#4478BA" font-family="HelvNeueMediumforIBM, HelvNeue Medium for IBM" font-size="12" font-weight="normal">
                <tspan x="0.2363" y="9.0377">ENTERPRISE NETWORK</tspan>
            </text>
        </g>
        <g id="Group" transform="translate(553.000000, 313.000000)">
            <g transform="translate(0.000000, 74.000000)" fill="#4478BA" font-family="HelvNeueMediumforIBM, HelvNeue Medium for IBM" font-size="11" font-weight="normal">
                <text id="TRANSFORMATION-&amp;">
                    <tspan x="2.956" y="8.0107">TRANSFORMATION &amp;</tspan>
                </text>
                <text id="CONNECTIVITY">
                    <tspan x="18.8874" y="21.2104">CONNECTIVITY</tspan>
                </text>
            </g>
            <g transform="translate(23.000000, 0.000000)" id="Path">
                <path d="M17.1,0.2 L2.3,0.2 C1.2,0.2 0.3,1.1 0.3,2.2 L0.3,17 C0.3,18.1 1.2,19 2.3,19 L17.1,19 C18.2,19 19.1,18.1 19.1,17 L19.1,2.2 C19.1,1.1 18.2,0.2 17.1,0.2 Z" fill="#E5E5E4" fill-rule="nonzero"></path>
                <g transform="translate(5.000000, 5.000000)">
                    <path d="M1.5,7.7 L7.7,1.4" stroke="#979797" stroke-width="0.9234"></path>
                    <polygon fill="#979797" fill-rule="nonzero" points="5.3 8.1 5.3 7.3 1.7 7.5 1.8 3.8 1.1 3.8 0.9 8.2"></polygon>
                    <polygon fill="#979797" fill-rule="nonzero" points="8.1 5.3 7.4 5.3 7.5 1.6 3.9 1.8 3.9 1 8.3 0.9"></polygon>
                </g>
                <polyline stroke="#979797" stroke-width="0.9234" points="6.8 16.3 3.1 16.3 3.1 12.6"></polyline>
                <polyline stroke="#979797" stroke-width="0.9234" points="13.3 3.1 17 3.1 17 6.8"></polyline>
            </g>
            <g transform="translate(25.000000, 5.000000)" fill-rule="nonzero">
                <ellipse id="dbacm_transform" fill="#8EC640" cx="33.6" cy="33" rx="33" ry="32.9"></ellipse>
                <g transform="translate(9.000000, 11.000000)" fill="#FFFFFF">
                    <g transform="translate(0.000000, 11.000000)" id="Path">
                        <path d="M13,25.3 C6.1,25.3 0.5,19.7 0.5,12.8 C0.5,5.9 6.1,0.3 13,0.3 C18,0.3 22.4,3.2 24.4,7.6 L23.2,8.2 C21.3,4.2 17.4,1.6 13,1.6 C6.9,1.6 1.8,6.6 1.8,12.6 C1.8,18.6 6.8,23.6 13,23.6 L13.2,23.6 L13.2,25 L13.1,25 C13.2,25.3 13.2,25.3 13,25.3 Z"></path>
                        <polygon points="25.9 2.8 24.8 2.6 23.6 7.6 18.6 5.9 18.3 6.9 24.3 8.9"></polygon>
                    </g>
                    <rect id="Rectangle" x="13" y="34.9" width="18.2" height="1.4"></rect>
                    <path d="M36.9,13.1 C36.4,6.8 31.1,1.8 24.7,1.8 C18.6,1.8 13.5,6.1 12.7,12.1 L11.3,11.9 C12.4,5.2 18,0.4 24.8,0.4 C31.9,0.4 37.8,6 38.4,12.9 L36.9,13.1 Z" id="Path"></path>
                    <g transform="translate(21.000000, 12.000000)" id="Path">
                        <path d="M15.5,25.4 C9.4,25.4 4.2,21.1 3.1,15.1 L4.5,14.9 C5.5,20.2 10.1,24.1 15.4,24.1 C21.6,24.1 26.6,19.1 26.6,12.9 C26.6,6.9 21.8,1.9 15.7,1.7 L15.7,0.3 C22.5,0.4 28,6.1 28,12.8 C28.1,19.8 22.4,25.4 15.5,25.4 Z"></path>
                        <polygon points="0.6 19.5 1.6 20 4.1 15.4 8.4 18.2 9 17.4 3.7 13.9"></polygon>
                    </g>
                </g>
            </g>
        </g>
        <g id="Group" transform="translate(625.000000, 43.000000)">
            <g id="Path" stroke="#457ABD" stroke-width="1.482">
                <polyline points="0.5 4 0.5 0.5 4 0.5"></polyline>
                <path d="M10.8,0.5 L225.1,0.5" stroke-dasharray="6.8049,6.8049"></path>
                <polyline points="228.5 0.5 232 0.5 232 4"></polyline>
                <path d="M232,11.4 L232,111" stroke-dasharray="7.3763,7.3763"></path>
                <polyline points="232 114.7 232 118.2 228.5 118.2"></polyline>
                <path d="M221.7,118.2 L7.4,118.2" stroke-dasharray="6.8049,6.8049"></path>
                <polyline points="4 118.2 0.5 118.2 0.5 114.7"></polyline>
                <path d="M0.5,107.3 L0.5,7.7" stroke-dasharray="7.3763,7.3763"></path>
            </g>
            <g transform="translate(48.000000, 17.000000)">
                <g transform="translate(100.000000, 0.000000)">
                    <g id="dbacm_developer" fill-rule="nonzero">
                        <ellipse id="Oval" fill="#C2952E" cx="33.8" cy="32.9" rx="33" ry="32.9"></ellipse>
                        <g id="Group" transform="translate(21.000000, 16.000000)" fill="#FFFFFF">
                            <path d="M20.9,24.9 L4.6,24.8 C2.4,24.8 0.5,26.5 0.5,28.9 L0.5,33 L25,33 L25,28.9 C25,26.7 23.1,24.9 20.9,24.9 Z" id="Path"></path>
                            <path d="M12.8,20.7 C7.1,20.7 2.5,16 2.5,10.4 C2.5,4.8 7.1,0 12.8,0 C18.5,0 23.1,4.7 23.1,10.3 C23.1,16.1 18.5,20.7 12.8,20.7 Z M12.8,1.4 C7.9,1.4 3.8,5.5 3.8,10.4 C3.8,15.3 7.9,19.4 12.8,19.4 C17.7,19.4 21.8,15.3 21.8,10.4 C21.8,5.5 17.7,1.4 12.8,1.4 Z" id="Shape"></path>
                        </g>
                    </g>
                    <text id="DEVELOPER" fill="#457ABD" font-family="HelvNeueMediumforIBM, HelvNeue Medium for IBM" font-size="11" font-weight="normal">
                        <tspan x="2.538" y="76.3728">DEVELOPER</tspan>
                    </text>
                </g>
                <g>
                    <g id="dbacm_contentdesigner" fill-rule="nonzero">
                        <ellipse id="Oval" fill="#C2952E" cx="33.2" cy="32.9" rx="33" ry="32.9"></ellipse>
                        <g id="Group" transform="translate(20.000000, 16.000000)" fill="#FFFFFF">
                            <path d="M21.3,24.9 L5,24.8 C2.8,24.8 0.9,26.5 0.9,28.9 L0.9,33 L25.3,33.1 L25.3,29 C25.4,26.7 23.6,24.9 21.3,24.9 Z" id="Path"></path>
                            <path d="M13.2,20.7 C7.5,20.7 2.9,16 2.9,10.4 C2.9,4.8 7.6,0 13.2,0 C18.8,0 23.5,4.7 23.5,10.3 C23.6,16.1 18.9,20.7 13.2,20.7 Z M13.2,1.4 C8.3,1.4 4.2,5.5 4.2,10.4 C4.2,15.3 8.3,19.4 13.2,19.4 C18.1,19.4 22.2,15.3 22.2,10.4 C22.2,5.5 18.1,1.4 13.2,1.4 Z" id="Shape"></path>
                        </g>
                    </g>
                    <g transform="translate(5.929900, 68.372800)" fill="#457ABD" font-family="HelvNeueMediumforIBM, HelvNeue Medium for IBM" font-size="11" font-weight="normal">
                        <text id="CONTENT">
                            <tspan x="0.1995" y="8">CONTENT</tspan>
                        </text>
                        <text id="DESIGNER">
                            <tspan x="0.453" y="21.2">DESIGNER</tspan>
                        </text>
                    </g>
                </g>
            </g>
        </g>
        <g id="Group" transform="translate(10.000000, 647.000000)">
            <text id="Digital-business-aut" fill="#4479BC" font-family="HelvNeueMediumforIBM, HelvNeue Medium for IBM" font-size="9.3907" font-weight="normal">
                <tspan x="14" y="61">Digital business automation</tspan>
            </text>
            <g transform="translate(0.000000, 96.000000)" id="Path">
                <path d="M9.5,0.7 L2.3,0.7 C1.4,0.7 0.6,1.5 0.6,2.4 L0.6,9.6 C0.6,10.5 1.4,11.3 2.3,11.3 L9.5,11.3 C10.4,11.3 11.2,10.5 11.2,9.6 L11.2,2.4 C11.2,1.5 10.4,0.7 9.5,0.7 Z" fill="#E4E4E3" fill-rule="nonzero"></path>
                <g transform="translate(3.000000, 3.000000)">
                    <path d="M0.8,4.9 L4.8,1.1" stroke="#969595" stroke-width="0.2198"></path>
                    <polygon fill="#969595" fill-rule="nonzero" points="1.8 5.1 1.8 4.8 0.9 4.9 0.9 4 0.7 4 0.7 5.1"></polygon>
                    <polygon fill="#969595" fill-rule="nonzero" points="4.8 2 4.7 2 4.7 1.1 3.8 1.1 3.8 1 4.8 0.9"></polygon>
                </g>
                <polyline stroke="#969595" stroke-width="0.2198" points="4.2 9.8 2.1 9.8 2.1 7.7"></polyline>
                <polyline stroke="#969595" stroke-width="0.2198" points="7.8 2.3 10 2.3 10 4.4"></polyline>
            </g>
            <rect id="Rectangle" fill="#E8BD1F" fill-rule="nonzero" x="0.1" y="22" width="11.2" height="6.8"></rect>
            <rect id="Rectangle" fill="#8FC542" fill-rule="nonzero" x="0" y="33" width="11.2" height="6.8"></rect>
            <rect id="Rectangle" fill="#335E80" fill-rule="nonzero" x="0" y="43" width="11.2" height="6.8"></rect>
            <rect id="Rectangle" fill="#BF2A61" fill-rule="nonzero" x="0.1" y="54" width="11.2" height="6.8"></rect>
            <text id="Management" fill="#4479BC" font-family="HelvNeueMediumforIBM, HelvNeue Medium for IBM" font-size="9.3907" font-weight="normal">
                <tspan x="14" y="72">Management</tspan>
            </text>
            <rect id="Rectangle" fill="#06B09D" fill-rule="nonzero" x="0.1" y="65" width="11.2" height="6.8"></rect>
            <text id="Security" fill="#4479BC" font-family="HelvNeueMediumforIBM, HelvNeue Medium for IBM" font-size="9.3907" font-weight="normal">
                <tspan x="14" y="83">Security</tspan>
            </text>
            <rect id="Rectangle" fill="#E22433" fill-rule="nonzero" x="0.1" y="76" width="11.2" height="6.8"></rect>
            <text id="Analytics" fill="#4479BC" font-family="HelvNeueMediumforIBM, HelvNeue Medium for IBM" font-size="9.3907" font-weight="normal">
                <tspan x="14" y="94">Analytics</tspan>
            </text>
            <rect id="Rectangle" fill="#734198" fill-rule="nonzero" x="0.1" y="87" width="11.2" height="6.8"></rect>
            <text id="Application-componen" fill="#4479BC" font-family="HelvNeueMediumforIBM, HelvNeue Medium for IBM" font-size="9.3907" font-weight="normal">
                <tspan x="14" y="28">Application component</tspan>
            </text>
            <rect id="Rectangle" fill="#C2962D" fill-rule="nonzero" x="0" y="11" width="11.2" height="6.8"></rect>
            <text id="Users" fill="#4479BC" font-family="HelvNeueMediumforIBM, HelvNeue Medium for IBM" font-size="9.3907" font-weight="normal">
                <tspan x="14" y="18">Users</tspan>
            </text>
            <text id="LEGEND" fill="#4479BC" font-family="HelvNeueMediumforIBM, HelvNeue Medium for IBM" font-size="10.2444" font-weight="normal">
                <tspan x="0.0252" y="7.2346">LEGEND</tspan>
            </text>
            <text id="Infrastructure-servi" fill="#4479BC" font-family="HelvNeueMediumforIBM, HelvNeue Medium for IBM" font-size="9.3907" font-weight="normal">
                <tspan x="14" y="39">Infrastructure services</tspan>
            </text>
            <text id="Data-store" fill="#4479BC" font-family="HelvNeueMediumforIBM, HelvNeue Medium for IBM" font-size="9.3907" font-weight="normal">
                <tspan x="14" y="50">Data store</tspan>
            </text>
            <text id="Scalable-infrastructure" fill="#4479BC" font-family="HelvNeueMediumforIBM, HelvNeue Medium for IBM" font-size="9.3907" font-weight="normal">
                <tspan x="14" y="106">Scalable infrastructure</tspan>
            </text>
        </g>
        <text id="AUTHORING-&amp;-DEVELOPMENT-FLOW" fill="#999999" font-family="Helvetica" font-size="9" font-weight="normal">
            <tspan x="7.1157" y="173.592">AUTHORING &amp; DEVELOPMENT FLOW</tspan>
        </text>
        <text id="END-USER-&amp;-RUNTIME-FLOW" fill="#999999" font-family="Helvetica" font-size="9" font-weight="normal">
            <tspan x="24.4228" y="188.592">END USER &amp; RUNTIME FLOW</tspan>
        </text>
        <g id="Group" transform="translate(2.000000, 177.000000)" stroke="#999999" stroke-width="0.75">
            <path d="M0,0.5 L6,0.5" id="Path"></path>
            <path d="M18,0.5 L854.7,0.5" id="Path" stroke-dasharray="12.0382,12.0382"></path>
            <path d="M860.7,0.5 L866.7,0.5" id="Path"></path>
        </g>
        <g id="Group" transform="translate(703.000000, 204.000000)">
            <g id="dbacm_intuser" fill-rule="nonzero">
                <ellipse id="Oval" fill="#C2952E" cx="33.7" cy="33.4" rx="33" ry="32.9"></ellipse>
                <g id="Group" transform="translate(21.000000, 16.000000)" fill="#FFFFFF">
                    <path d="M20.9,25.4 L4.6,25.3 C2.4,25.3 0.5,27 0.5,29.4 L0.5,33.5 L24.9,33.6 L24.9,29.5 C24.9,27.3 23.1,25.4 20.9,25.4 Z" id="Path"></path>
                    <path d="M12.7,21.2 C7,21.2 2.4,16.5 2.4,10.9 C2.4,5.2 7.1,0.6 12.7,0.6 C18.4,0.6 23,5.3 23,10.9 C23.1,16.7 18.4,21.2 12.7,21.2 Z M12.7,1.9 C7.8,1.9 3.7,6 3.7,10.9 C3.7,15.8 7.8,19.9 12.7,19.9 C17.6,19.9 21.7,15.8 21.7,10.9 C21.7,6 17.7,1.9 12.7,1.9 Z" id="Shape"></path>
                </g>
            </g>
            <g transform="translate(8.062100, 69.936700)" fill="#457ABD" font-family="HelvNeueMediumforIBM, HelvNeue Medium for IBM" font-size="11" font-weight="normal">
                <text id="INTERNAL">
                    <tspan x="0.045" y="8">INTERNAL</tspan>
                </text>
                <text id="USER">
                    <tspan x="12.5405" y="21.2">USER</tspan>
                </text>
            </g>
        </g>
        <g id="Group" transform="translate(699.000000, 318.000000)">
            <g transform="translate(0.851900, 68.037000)" fill="#4478BA" font-family="HelvNeueMediumforIBM, HelvNeue Medium for IBM" font-size="11" font-weight="normal">
                <text id="CENTRALIZED">
                    <tspan x="0.2265" y="8">CENTRALIZED</tspan>
                </text>
                <text id="CONTENT">
                    <tspan x="12.2995" y="21.2">CONTENT</tspan>
                </text>
                <text id="REPOSITORY">
                    <tspan x="4.0365" y="34.4">REPOSITORY</tspan>
                </text>
            </g>
            <g id="dbacm_ccr" transform="translate(6.000000, 0.000000)" fill-rule="nonzero">
                <circle id="Oval" fill="#325C80" cx="32.8" cy="32.4" r="32.3"></circle>
                <rect id="Rectangle" fill="#FFFFFF" x="11" y="14" width="43.6" height="36.9"></rect>
                <rect id="Rectangle" fill="#325C80" x="12.2" y="15.2" width="12.6" height="9.9"></rect>
                <rect id="Rectangle" fill="#FFFFFF" x="15.6" y="19.6" width="5.8" height="1.1"></rect>
                <rect id="Rectangle" fill="#325C80" x="25.8" y="15.2" width="13.6" height="9.9"></rect>
                <rect id="Rectangle" fill="#FFFFFF" x="29.5" y="19.6" width="6.2" height="1.1"></rect>
                <rect id="Rectangle" fill="#325C80" x="41" y="15.2" width="12.6" height="9.9"></rect>
                <rect id="Rectangle" fill="#FFFFFF" x="44.4" y="19.6" width="5.8" height="1.1"></rect>
                <rect id="Rectangle" fill="#325C80" x="41" y="26.2" width="12" height="12.1"></rect>
                <rect id="Rectangle" fill="#FFFFFF" x="44.2" y="31.6" width="5.5" height="1.3"></rect>
                <rect id="Rectangle" fill="#325C80" x="11.9" y="26.2" width="12.6" height="12.1"></rect>
                <rect id="Rectangle" fill="#FFFFFF" x="15.4" y="31.6" width="5.8" height="1.3"></rect>
                <rect id="Rectangle" fill="#325C80" x="25.8" y="26.2" width="13.7" height="12.4"></rect>
                <rect id="Rectangle" fill="#FFFFFF" x="29.5" y="31.7" width="6.3" height="1.4"></rect>
                <rect id="Rectangle" fill="#325C80" x="12.2" y="39.7" width="12.6" height="9.9"></rect>
                <rect id="Rectangle" fill="#FFFFFF" x="15.6" y="44.2" width="5.8" height="1.1"></rect>
                <rect id="Rectangle" fill="#325C80" x="25.8" y="39.7" width="13.7" height="9.9"></rect>
                <rect id="Rectangle" fill="#FFFFFF" x="29.5" y="44.2" width="6.3" height="1.1"></rect>
                <rect id="Rectangle" fill="#325C80" x="41" y="39.7" width="12" height="9.9"></rect>
                <rect id="Rectangle" fill="#FFFFFF" x="44.2" y="44.2" width="5.5" height="1.1"></rect>
            </g>
        </g>
        <g id="Group" transform="translate(520.000000, 346.000000)">
            <path d="M54.4,7 L2,7" id="Path" stroke="#4478BA" stroke-width="1.5"></path>
            <polygon id="Path" fill="#4478BA" fill-rule="nonzero" points="49.4 0.9 48.4 2 53.8 7 48.4 12 49.4 13.1 56 7"></polygon>
            <polygon id="Path" fill="#4478BA" fill-rule="nonzero" points="7 0.9 8 2 2.6 7 8 12 7 13.1 0.4 7"></polygon>
        </g>
        <g id="Group" transform="translate(647.000000, 346.000000)">
            <path d="M54.7,7 L2.3,7" id="Path" stroke="#4478BA" stroke-width="1.5"></path>
            <polygon id="Path" fill="#4478BA" fill-rule="nonzero" points="49.7 0.9 48.7 2 54.1 7 48.7 12 49.7 13.1 56.3 7"></polygon>
            <polygon id="Path" fill="#4478BA" fill-rule="nonzero" points="7.3 0.9 8.3 2 2.9 7 8.3 12 7.3 13.1 0.7 7"></polygon>
        </g>
        <g id="Group" transform="translate(395.000000, 346.000000)">
            <path d="M54.9,7 L2.6,7" id="Path" stroke="#4478BA" stroke-width="1.5"></path>
            <polygon id="Path" fill="#4478BA" fill-rule="nonzero" points="49.9 0.9 48.9 2 54.3 7 48.9 12 49.9 13.1 56.5 7"></polygon>
            <polygon id="Path" fill="#4478BA" fill-rule="nonzero" points="7.5 0.9 8.6 2 3.1 7 8.6 12 7.5 13.1 0.9 7"></polygon>
        </g>
        <g id="Group" transform="translate(270.000000, 346.000000)">
            <path d="M54.7,7 L2.3,7" id="Path" stroke="#4478BA" stroke-width="1.5"></path>
            <polygon id="Path" fill="#4478BA" fill-rule="nonzero" points="49.7 0.9 48.7 2 54.1 7 48.7 12 49.7 13.1 56.3 7"></polygon>
            <polygon id="Path" fill="#4478BA" fill-rule="nonzero" points="7.3 0.9 8.3 2 2.9 7 8.3 12 7.3 13.1 0.7 7"></polygon>
        </g>
        <g id="Group" transform="translate(362.000000, 87.000000)">
            <path d="M304.2,7 L2,7" id="Path" stroke="#4478BA" stroke-width="1.5"></path>
            <polygon id="Path" fill="#4478BA" fill-rule="nonzero" points="299.3 0.9 298.2 2 303.7 7 298.2 12 299.3 13.1 305.9 7"></polygon>
            <polygon id="Path" fill="#4478BA" fill-rule="nonzero" points="7 0.9 8 2 2.6 7 8 12 7 13.1 0.4 7"></polygon>
        </g>
        <g id="Group" transform="translate(201.000000, 318.000000)">
            <g transform="translate(6.000000, 68.000000)" fill="#4478BA" font-family="HelvNeueMediumforIBM, HelvNeue Medium for IBM" font-size="11" font-weight="normal">
                <text id="EDGE">
                    <tspan x="11.9499" y="8.0265">EDGE</tspan>
                </text>
                <text id="SERVICES">
                    <tspan x="2.2629" y="21.2262">SERVICES</tspan>
                </text>
            </g>
            <g fill-rule="nonzero">
                <circle id="dbacm_edgesvcs" fill="#8EC640" cx="33.6" cy="33.2" r="33"></circle>
                <path d="M33.6,13.9 C23,13.9 14.3,22.6 14.3,33.2 C14.3,43.8 23,52.5 33.6,52.5 C44.2,52.5 52.9,43.8 52.9,33.2 C52.9,22.6 44.2,13.9 33.6,13.9 Z M51.2,33.2 C51.2,34.8 51,36.2 50.6,37.5 C48.2,33.3 45.3,30.2 42.3,27.9 C42.5,27.7 42.7,27.3 42.7,26.9 C42.7,26.2 42.2,25.5 41.5,25.2 C42.1,22.2 42.9,19.9 43.5,18.6 C48,21.7 51.2,27.2 51.2,33.2 Z M42.5,40.4 C42.4,39.6 41.9,39 41.1,38.8 C40.5,35.1 40.5,31.7 40.9,28.7 C41,28.7 41.3,28.7 41.4,28.6 C44.5,31 47.7,34.4 50.3,39.1 C49.9,40.2 49.5,41.1 48.9,42.1 C46.7,41.1 44.7,40.5 42.5,40.4 Z M16,33.2 C16,33 16,32.7 16,32.4 C16.6,32.5 17.4,32.6 18.6,32.9 C18.6,33.1 18.7,33.3 18.8,33.4 C17.7,34.6 16.8,35.3 16.2,35.8 C16.1,34.9 16,34 16,33.2 Z M19.4,22.8 C20.4,22.7 22.4,22.4 24.9,22.7 C25,22.9 25.3,23.2 25.4,23.3 C24.1,26.4 22.5,29 20.9,30.9 C20.7,30.8 20.4,30.8 20.2,30.8 C19.5,30.8 18.9,31.2 18.6,31.8 C17.4,31.6 16.4,31.4 16,31.3 C16.5,28.1 17.7,25.2 19.4,22.8 Z M21.9,31.6 C23.5,29.6 25.2,26.9 26.6,23.5 C27.1,23.5 27.6,23.3 27.8,22.9 C28.6,23 29.5,23.1 30.3,23.4 C32.8,24 35.8,25.1 38.9,26.9 C38.9,27.5 39.3,28 39.6,28.2 C39.2,31.3 39.1,34.9 39.8,38.8 C39.2,39 38.8,39.6 38.8,40.4 C38.2,40.5 37.5,40.6 36.9,40.8 C36.5,40.4 36.1,40.2 35.6,40.2 C35.5,40.2 35.4,40.2 35.2,40.2 C33,37.8 30.3,35.7 26.6,34.1 C25,33.4 23.5,32.8 22,32.4 C22,32.4 22,32.4 22,32.3 C22.1,32.1 22.1,31.9 21.9,31.6 Z M37.4,42 C38,41.9 38.7,41.8 39.3,41.6 C39.7,42 40.1,42.2 40.6,42.3 C41.1,44.1 41.8,46 42.8,48 C41.7,48.6 40.6,49.2 39.4,49.6 C39,47.2 38.3,44.9 37.1,42.9 C37.3,42.7 37.4,42.5 37.4,42 C37.4,42.1 37.4,42.1 37.4,42 Z M42.4,18 C41.8,19.3 40.8,21.9 40.2,25.2 C39.8,25.3 39.5,25.6 39.2,25.9 C35.3,23.6 31.5,22.5 28.2,21.9 L28.2,21.8 C28.2,21.3 28,20.8 27.7,20.5 C28.2,19.2 28.5,17.7 28.9,16.2 C30.3,15.8 31.9,15.6 33.5,15.6 C36.8,15.6 39.8,16.6 42.4,18 Z M27.7,16.7 C27.3,17.9 27.1,19 26.7,20.1 C26.6,20.1 26.6,20.1 26.5,20.1 C25.7,20.1 24.9,20.7 24.7,21.5 C22.9,21.4 21.4,21.5 20.4,21.5 C22.4,19.3 24.9,17.6 27.7,16.7 Z M16.4,37 C17,36.6 18.2,35.7 19.8,34.1 C20,34.2 20.2,34.2 20.4,34.2 C20.9,34.2 21.4,34 21.7,33.6 C25.7,34.8 30.7,37 34.2,40.9 C34,41.1 33.8,41.5 33.7,41.9 C33,42.1 32.3,42.5 31.4,42.9 C27.8,44.7 25.1,47 24.1,48 C20.3,45.6 17.4,41.6 16.4,37 Z M25.3,48.6 C26.7,47.3 30,44.7 34.2,43.1 C34.6,43.6 35,43.9 35.6,43.9 C35.8,43.9 36.1,43.9 36.3,43.8 C37.4,45.6 38.1,47.7 38.3,50.1 C36.7,50.6 35.2,50.8 33.5,50.8 C30.6,50.6 27.7,49.9 25.3,48.6 Z M43.8,47.4 C43,45.6 42.2,43.8 41.8,42 C41.9,41.9 42.2,41.8 42.3,41.5 C44.2,41.6 46.2,42 48.2,42.9 C47,44.7 45.5,46.2 43.8,47.4 Z" id="Shape" fill="#FFFFFF"></path>
            </g>
        </g>
        <g id="Group" transform="translate(116.000000, 239.000000)">
            <polyline id="Path" stroke="#4478BA" stroke-width="1.5" points="79.4 102.7 44.3 102.7 44.3 6.3 2.5 6.3"></polyline>
            <polygon id="Path" fill="#4478BA" fill-rule="nonzero" points="74.4 96.6 73.4 97.7 78.8 102.7 73.4 107.7 74.4 108.8 81 102.7"></polygon>
            <polygon id="Path" fill="#4478BA" fill-rule="nonzero" points="7.5 0.2 8.5 1.3 3.1 6.3 8.5 11.3 7.5 12.4 0.9 6.3"></polygon>
        </g>
        <g id="Group" transform="translate(116.000000, 379.000000)">
            <polyline id="Path" stroke="#4478BA" stroke-width="1.5" points="2.5 190.3 44.3 190.3 44.3 6.6 79.4 6.6"></polyline>
            <polygon id="Path" fill="#4478BA" fill-rule="nonzero" points="7.5 196.5 8.5 195.4 3.1 190.3 8.5 185.3 7.5 184.2 0.9 190.3"></polygon>
            <polygon id="Path" fill="#4478BA" fill-rule="nonzero" points="74.4 12.8 73.4 11.7 78.8 6.6 73.4 1.6 74.4 0.5 81 6.6"></polygon>
        </g>
        <g class="flowStep" transform="translate(697.000000, 300.000000)">
            <circle id="Oval" fill="#808384" fill-rule="nonzero" cx="12.7" cy="12.8" r="12.5"></circle>
            <text id="2" fill="#FFFFFF" font-family="Helvetica" font-size="16" font-weight="normal">
                <tspan x="8.3654" y="18.48">2</tspan>
            </text>
        </g>
        <g class="flowStep" transform="translate(753.000000, 300.000000)">
            <circle id="Oval" fill="#808384" fill-rule="nonzero" cx="12.7" cy="12.8" r="12.5"></circle>
            <text id="6" fill="#FFFFFF" font-family="Helvetica" font-size="16" font-weight="normal">
                <tspan x="8.4573" y="18.5478">6</tspan>
            </text>
        </g>
        <g class="flowStep" transform="translate(733.000000, 49.000000)">
            <circle id="Oval" fill="#808384" fill-rule="nonzero" cx="13" cy="12.7" r="12.5"></circle>
            <g transform="translate(4.000000, 0.000000)">
                <rect id="Rectangle" x="0.6" y="5.8" width="15.4" height="17"></rect>
                <text id="1" fill="#FFFFFF" font-family="Helvetica" font-size="18.2894" font-weight="normal">
                    <tspan x="4.4467" y="18.8869">1</tspan>
                </text>
            </g>
        </g>
        <g class="flowStep" transform="translate(24.000000, 428.000000)">
            <circle id="Oval" fill="#808384" fill-rule="nonzero" cx="13.3" cy="13.3" r="12.5"></circle>
            <text id="3" fill="#FFFFFF" font-family="Helvetica" font-size="16" font-weight="normal">
                <tspan x="8.8554" y="19.054">3</tspan>
            </text>
        </g>
        <g id="Group-2" transform="translate(447.000000, 318.000000)">
            <g id="Group">
                <ellipse id="dbacm_contentappservices" fill="#BF2A61" fill-rule="nonzero" cx="38.6" cy="33.1" rx="33" ry="32.9"></ellipse>
                <g transform="translate(0.818900, 68.204400)" fill="#4478BA" font-family="HelvNeueMediumforIBM, HelvNeue Medium for IBM" font-size="11" font-weight="normal">
                    <text id="CONTENT">
                        <tspan x="11.1995" y="8">CONTENT</tspan>
                    </text>
                    <text id="APPLICATION">
                        <tspan x="0.8235" y="21.2">APPLICATION</tspan>
                    </text>
                    <text id="SERVICES">
                        <tspan x="10.8795" y="34.4">SERVICES</tspan>
                    </text>
                </g>
            </g>
            <g id="Group-24" transform="translate(21.000000, 14.000000)">
                <g id="Group-23">
                    <polygon id="Stroke-1" stroke="#FFFFFF" stroke-width="2" points="0 36.5 28.199 36.5 28.199 0 0 0"></polygon>
                    <polygon id="Fill-3" fill="#BF2A61" points="24.9 34.3 31.5 34.3 31.5 8.3 24.9 8.3"></polygon>
                    <g id="Group-22" transform="translate(4.000000, 5.500000)">
                        <path d="M36.1001,22.9001 L33.3001,25.1001 L30.9001,23.2001 L30.5001,22.9001 L30.1001,23.1001 C29.1001,23.5001 28.1001,23.7001 27.1001,23.7001 L26.7001,23.7001 L26.5001,24.1001 L24.9001,26.6001 L21.6001,25.4001 L22.0001,22.5001 L22.1001,22.1001 L21.8001,21.8001 C21.0001,21.1001 20.4001,20.3001 19.9001,19.4001 L19.7001,19.0001 L19.2001,19.0001 L16.1001,18.9001 L15.5001,15.4001 L18.5001,14.2001 L18.9001,14.0001 L19.0001,13.6001 C19.1001,13.1001 19.2001,12.7001 19.4001,12.3001 C19.5001,11.9001 19.7001,11.5001 20.0001,11.1001 L20.2001,10.7001 L20.0001,10.3001 L18.5001,7.4001 L21.3001,5.2001 L23.7001,7.1001 L24.1001,7.4001 L24.5001,7.2001 C25.5001,6.8001 26.5001,6.6001 27.5001,6.6001 L27.9001,6.6001 L28.1001,6.2001 L29.7001,3.7001 L33.0001,4.9001 L32.6001,7.8001 L32.5001,8.2001 L32.8001,8.5001 C33.6001,9.2001 34.2001,10.0001 34.7001,10.9001 L34.9001,11.3001 L35.4001,11.3001 L38.5001,11.4001 L39.1001,14.9001 L36.1001,16.1001 L35.7001,16.3001 L35.6001,16.7001 C35.5001,17.2001 35.4001,17.6001 35.2001,18.0001 C35.1001,18.4001 34.9001,18.8001 34.6001,19.2001 L34.4001,19.6001 L34.6001,20.0001 L36.1001,22.9001 Z M35.9001,18.3001 C36.1001,17.8001 36.2001,17.3001 36.3001,16.9001 L40.0001,15.4001 L39.1001,10.6001 L35.4001,10.5001 C34.9001,9.5001 34.2001,8.6001 33.3001,7.9001 L33.8001,4.4001 L29.3001,2.7001 L27.4001,5.7001 C26.3001,5.7001 25.1001,5.9001 24.1001,6.3001 L21.2001,4.0001 L17.4001,7.1001 L19.2001,10.6001 C19.0001,11.0001 18.7001,11.5001 18.6001,12.0001 C18.4001,12.5001 18.3001,13.0001 18.2001,13.4001 L14.5001,14.9001 L15.4001,19.7001 L19.1001,19.8001 C19.6001,20.8001 20.3001,21.7001 21.2001,22.4001 L20.7001,25.9001 L25.2001,27.6001 L27.1001,24.6001 C28.2001,24.6001 29.4001,24.4001 30.4001,24.0001 L33.3001,26.3001 L37.1001,23.2001 L35.3001,19.7001 C35.5001,19.2001 35.7001,18.7001 35.9001,18.3001 L35.9001,18.3001 Z" id="Fill-4" fill="#FFFFFF"></path>
                        <path d="M36.1001,22.9001 L33.3001,25.1001 L30.9001,23.2001 L30.5001,22.9001 L30.1001,23.1001 C29.1001,23.5001 28.1001,23.7001 27.1001,23.7001 L26.7001,23.7001 L26.5001,24.1001 L24.9001,26.6001 L21.6001,25.4001 L22.0001,22.5001 L22.1001,22.1001 L21.8001,21.8001 C21.0001,21.1001 20.4001,20.3001 19.9001,19.4001 L19.7001,19.0001 L19.2001,19.0001 L16.1001,18.9001 L15.5001,15.4001 L18.5001,14.2001 L18.9001,14.0001 L19.0001,13.6001 C19.1001,13.1001 19.2001,12.7001 19.4001,12.3001 C19.5001,11.9001 19.7001,11.5001 20.0001,11.1001 L20.2001,10.7001 L20.0001,10.3001 L18.5001,7.4001 L21.3001,5.2001 L23.7001,7.1001 L24.1001,7.4001 L24.5001,7.2001 C25.5001,6.8001 26.5001,6.6001 27.5001,6.6001 L27.9001,6.6001 L28.1001,6.2001 L29.7001,3.7001 L33.0001,4.9001 L32.6001,7.8001 L32.5001,8.2001 L32.8001,8.5001 C33.6001,9.2001 34.2001,10.0001 34.7001,10.9001 L34.9001,11.3001 L35.4001,11.3001 L38.5001,11.4001 L39.1001,14.9001 L36.1001,16.1001 L35.7001,16.3001 L35.6001,16.7001 C35.5001,17.2001 35.4001,17.6001 35.2001,18.0001 C35.1001,18.4001 34.9001,18.8001 34.6001,19.2001 L34.4001,19.6001 L34.6001,20.0001 L36.1001,22.9001 Z M35.9001,18.3001 C36.1001,17.8001 36.2001,17.3001 36.3001,16.9001 L40.0001,15.4001 L39.1001,10.6001 L35.4001,10.5001 C34.9001,9.5001 34.2001,8.6001 33.3001,7.9001 L33.8001,4.4001 L29.3001,2.7001 L27.4001,5.7001 C26.3001,5.7001 25.1001,5.9001 24.1001,6.3001 L21.2001,4.0001 L17.4001,7.1001 L19.2001,10.6001 C19.0001,11.0001 18.7001,11.5001 18.6001,12.0001 C18.4001,12.5001 18.3001,13.0001 18.2001,13.4001 L14.5001,14.9001 L15.4001,19.7001 L19.1001,19.8001 C19.6001,20.8001 20.3001,21.7001 21.2001,22.4001 L20.7001,25.9001 L25.2001,27.6001 L27.1001,24.6001 C28.2001,24.6001 29.4001,24.4001 30.4001,24.0001 L33.3001,26.3001 L37.1001,23.2001 L35.3001,19.7001 C35.5001,19.2001 35.7001,18.7001 35.9001,18.3001 Z" id="Stroke-6" stroke="#FFFFFF"></path>
                        <path d="M26.6997,16.6003 C25.8997,16.3003 25.3997,15.3003 25.8007,14.4993 C26.0997,13.6003 27.0997,13.2003 27.8997,13.4993 C28.6997,13.8003 29.1997,14.8003 28.8007,15.6003 C28.3997,16.4993 27.5007,16.9003 26.6997,16.6003 M29.0007,10.4003 C26.5007,9.4993 23.6997,10.8003 22.6997,13.4003 C21.6997,15.9993 23.0007,18.8003 25.5007,19.7003 C28.0007,20.6003 30.8007,19.3003 31.8007,16.7003 C32.8007,14.1003 31.5007,11.3003 29.0007,10.4003" id="Fill-8" fill="#FFFFFF"></path>
                        <path d="M13.3003,26.9001 L1.4003,26.9001 C0.6993,26.9001 0.1993,26.4001 0.1993,25.7001 C0.1993,25.0001 0.6993,24.5001 1.4003,24.5001 L13.3003,24.5001 C14.0003,24.5001 14.5003,25.0001 14.5003,25.7001 C14.5003,26.4001 14.0003,26.9001 13.3003,26.9001" id="Fill-10" fill="#FFFFFF"></path>
                        <path d="M10.8999,22.1999 L1.3999,22.1999 C0.6999,22.1999 0.1999,21.6999 0.1999,20.9999 C0.1999,20.3009 0.6999,19.8009 1.3999,19.8009 L10.8999,19.8009 C11.5999,19.8009 12.0999,20.3009 12.0999,20.9999 C12.0999,21.5999 11.5999,22.1999 10.8999,22.1999" id="Fill-12" fill="#FFFFFF"></path>
                        <path d="M8.5005,17.4001 L1.3995,17.4001 C0.6995,17.4001 0.1995,16.9001 0.1995,16.2001 C0.1995,15.5001 0.6995,15.0001 1.3995,15.0001 L8.5005,15.0001 C9.1995,15.0001 9.6995,15.5001 9.6995,16.2001 C9.6995,16.9001 9.1995,17.4001 8.5005,17.4001" id="Fill-14" fill="#FFFFFF"></path>
                        <path d="M10.8999,12.6999 L1.3999,12.6999 C0.6999,12.6999 0.1999,12.1999 0.1999,11.4999 C0.1999,10.8009 0.6999,10.3009 1.3999,10.3009 L10.8999,10.3009 C11.5999,10.3009 12.0999,10.8009 12.0999,11.4999 C12.0999,12.0999 11.5999,12.6999 10.8999,12.6999" id="Fill-16" fill="#FFFFFF"></path>
                        <path d="M13.3003,7.9001 L1.4003,7.9001 C0.6993,7.9001 0.1993,7.4001 0.1993,6.7001 C0.1993,6.0001 0.6993,5.5001 1.4003,5.5001 L13.3003,5.5001 C14.0003,5.5001 14.5003,6.0001 14.5003,6.7001 C14.5003,7.4001 14.0003,7.9001 13.3003,7.9001" id="Fill-18" fill="#FFFFFF"></path>
                        <path d="M18.1001,3.1999 L8.6001,3.1999 C7.9001,3.1999 7.4001,2.6999 7.4001,1.9999 C7.4001,1.3009 7.9001,0.8009 8.6001,0.8009 L18.1001,0.8009 C18.8001,0.8009 19.3001,1.3009 19.3001,1.9999 C19.2001,2.5999 18.7001,3.1999 18.1001,3.1999" id="Fill-20" fill="#FFFFFF"></path>
                    </g>
                </g>
            </g>
        </g>
        <g id="Group" transform="translate(292.000000, 60.000000)">
            <g transform="translate(0.222500, 68.343900)" fill="#4478BA" font-family="HelvNeueMediumforIBM, HelvNeue Medium for IBM" font-size="11" font-weight="normal">
                <text id="PROCESS">
                    <tspan x="7.2985" y="8">PROCESS</tspan>
                </text>
                <text id="AUTHORING">
                    <tspan x="0.532" y="21.2">AUTHORING</tspan>
                </text>
            </g>
            <g id="dbacm_processauthoring" fill="#BF2A61" fill-rule="nonzero">
                <ellipse id="Oval" cx="33.5" cy="33.6" rx="33" ry="32.9"></ellipse>
            </g>
        </g>
        <rect id="Rectangle" stroke="#457ABD" stroke-width="1.482" x="199" y="622.4" width="487" height="103.6"></rect>
        <g id="Group" transform="translate(244.000000, 627.000000)">
            <g>
                <g fill-rule="nonzero">
                    <circle id="dbacm_security" fill="#E12633" transform="translate(36.091281, 36.173327) rotate(-5.655155) translate(-36.091281, -36.173327) " cx="36.0912812" cy="36.1733267" r="32.9989056"></circle>
                    <path d="M47.5,26.8 C47.5,20.7 42.2,15.5 36.1,15.5 C30,15.5 24.7,20.7 24.7,26.8 L24.7,32 C22.3,34.6 20.8,38.1 20.8,42 C20.8,50.4 27.7,57.2 36,57.2 C44.4,57.2 51.2,50.5 51.2,42 C51.2,38.1 49.8,34.7 47.3,32 L47.3,26.8 L47.5,26.8 Z M28.5,26.8 C28.5,22.7 32.1,19.2 36.1,19.2 C40.2,19.2 43.7,22.7 43.7,26.8 L43.7,28.8 C41.4,27.5 38.9,26.8 36.1,26.8 C33.3,26.8 30.7,27.5 28.5,28.8 L28.5,26.8 Z M33.3,50.3 L26.2,43.3 L28.8,40.7 L33.1,45 L43.2,35 L45.8,37.6 L33.3,50.3 Z" id="Shape" fill="#FFFFFF"></path>
                </g>
                <text id="SECURITY" fill="#457ABD" font-family="HelvNeueMediumforIBM, HelvNeue Medium for IBM" font-size="11" font-weight="normal">
                    <tspan x="8.1043" y="79.854">SECURITY</tspan>
                </text>
            </g>
            <g transform="translate(212.000000, 3.000000)">
                <g transform="translate(0.339300, 69.428000)" fill="#4277BA" font-family="HelvNeueMediumforIBM, HelvNeue Medium for IBM" font-size="11" font-weight="normal">
                    <text id="MONITORING-&amp;">
                        <tspan x="0.8895" y="8">MONITORING &amp;</tspan>
                    </text>
                    <text id="LOGGING">
                        <tspan x="16.4865" y="21.2">LOGGING</tspan>
                    </text>
                </g>
                <g transform="translate(12.000000, 0.000000)" fill-rule="nonzero">
                    <g id="Layer_2_42_" fill="#8DC63F">
                        <circle id="dbacm_monitor" cx="33.1" cy="33.2" r="33"></circle>
                    </g>
                    <g transform="translate(10.000000, 15.000000)" fill="#FFFFFF">
                        <polygon id="Path" points="2.5 33.2 2.5 0.3 0.9 0.3 0.9 33.2 0.9 34.7 2.5 34.7 47.9 34.7 47.9 33.2"></polygon>
                        <rect id="Rectangle" x="5.6" y="17.5" width="11" height="12.5"></rect>
                        <path d="M30.7,5 L19.7,5 L19.7,30 L30.7,30 L30.7,5 Z M29.1,28.5 L21.3,28.5 L21.3,6.6 L29.1,6.6 L29.1,28.5 Z" id="Shape"></path>
                        <rect id="Rectangle" x="33.8" y="12.8" width="11" height="1.6"></rect>
                        <rect id="Rectangle" x="33.8" y="15.9" width="11" height="1.6"></rect>
                        <rect id="Rectangle" x="33.8" y="19.1" width="11" height="1.6"></rect>
                        <rect id="Rectangle" x="33.8" y="22.2" width="11" height="1.6"></rect>
                        <rect id="Rectangle" x="33.8" y="25.3" width="11" height="1.6"></rect>
                        <rect id="Rectangle" x="33.8" y="28.5" width="11" height="1.6"></rect>
                    </g>
                </g>
            </g>
            <g transform="translate(329.000000, 3.000000)">
                <g transform="translate(1.895800, 67.214800)" fill="#4277BA" font-family="HelvNeueMediumforIBM, HelvNeue Medium for IBM" font-size="11" font-weight="normal">
                    <text id="CONTENT">
                        <tspan x="5.1995" y="8">CONTENT</tspan>
                    </text>
                    <text id="ANALYTICS">
                        <tspan x="0.664" y="21.2">ANALYTICS</tspan>
                    </text>
                </g>
                <g fill-rule="nonzero">
                    <circle id="dbacm_contentanalytics" fill="#734198" cx="32.7" cy="32.4" r="32.3"></circle>
                    <path d="M50.9,26.6 C49.5,26.6 48.4,27.7 48.4,29.1 C48.4,30 48.8,30.7 49.5,31.2 L49.5,31.2 L44.7,41.8 C44.5,41.7 44.2,41.7 44,41.7 C43.5,41.7 43.1,41.9 42.5,42.1 L42.5,42.1 L41.5,36.9 C42.4,36.5 43.1,35.6 43.1,34.6 C43.1,33.2 41.9,32.2 40.5,32.2 C39.8,32.2 39,32.1 38.5,33.1 L38.5,33.1 L36.1,32.4 C36,31.1 35,30.1 33.7,30.1 C33.5,30.1 33.6,30.2 33.5,30.3 L31.8,24.2 L31.8,24.2 C31.8,23.7 31.8,23.5 31.8,23.1 C31.8,21.7 30.6,20.5 29.2,20.5 C27.8,20.5 26.6,21.6 26.6,23 C26.6,23 26.6,23 26.6,23 L16.5,31.6 C16,31.1 15.4,30.8 14.7,30.8 C13.3,30.8 12.2,31.9 12.2,33.3 C12.2,34.7 13.3,35.8 14.7,35.8 C16.1,35.8 17.2,34.7 17.2,33.3 C17.2,33.1 17.2,32.8 17.1,32.6 L26.9,24.2 L26.9,24.2 C27.2,25 28.1,25.5 29.1,25.5 C29.7,25.5 30.2,25.3 30.6,25 L30.6,25.3 L32.4,31.2 L32.4,31.2 C31.8,31.2 31.4,32.1 31.4,32.9 C31.4,34.3 32.5,35.3 33.9,35.3 C35,35.3 36.1,34.6 36.5,33.6 L38.9,34.1 L38.9,34.1 C38.9,34.3 38.9,34.5 38.9,34.7 C38.9,36.1 39.7,37.2 41.1,37.2 C41.3,37.2 41.3,37.2 41.4,37.2 C41.2,37.2 41,37.2 40.8,37.2 C40.7,37.2 40.7,37.2 40.6,37.2 L41.8,43.4 C41.7,43.7 41.6,44 41.6,44.3 C41.6,45.7 42.7,46.8 44.1,46.8 C45.5,46.8 46.6,45.7 46.6,44.3 C46.6,43.6 46.3,42.9 45.7,42.4 L45.7,42.4 L50.6,31.6 L50.6,31.6 C50.7,31.6 50.8,31.6 51,31.6 C52.4,31.6 53.5,30.5 53.5,29.1 C53.3,27.7 52.2,26.6 50.9,26.6 Z M14.5,34.6 C13.7,34.6 13.1,34 13.1,33.2 C13.1,32.4 13.7,31.8 14.5,31.8 C15.3,31.8 15.9,32.4 15.9,33.2 C15.9,34 15.3,34.6 14.5,34.6 Z M28.9,24.3 C28.1,24.3 27.5,23.7 27.5,22.9 C27.5,22.1 28.1,21.5 28.9,21.5 C29.7,21.5 30.3,22.1 30.3,22.9 C30.3,23.7 29.7,24.3 28.9,24.3 Z M33.7,33.9 C32.9,33.9 32.3,33.3 32.3,32.5 C32.3,31.7 32.9,31.1 33.7,31.1 C34.5,31.1 35.1,31.7 35.1,32.5 C35.1,33.3 34.5,33.9 33.7,33.9 Z M36.2,33 C36.2,32.8 36.2,32.7 36.2,32.5 C36.2,32.7 36.2,32.8 36.2,33 Z M39.2,34.6 C39.2,33.8 39.8,33.2 40.6,33.2 C41.4,33.2 42,33.8 42,34.6 C42,35.4 41.4,36 40.6,36 C39.8,36 39.2,35.3 39.2,34.6 Z M44,45.6 C43.2,45.6 42.6,45 42.6,44.2 C42.6,43.4 43.2,42.8 44,42.8 C44.8,42.8 45.4,43.4 45.4,44.2 C45.4,44.9 44.8,45.6 44,45.6 Z M50.9,30.5 C50.1,30.5 49.5,29.9 49.5,29.1 C49.5,28.3 50.1,27.7 50.9,27.7 C51.7,27.7 52.3,28.3 52.3,29.1 C52.2,29.8 51.6,30.5 50.9,30.5 Z" id="Shape" fill="#FFFFFF"></path>
                    <path d="M23.5,18.2 L26.2,20.5" id="Path" stroke="#FFFFFF" fill="#FFFFFF"></path>
                    <path d="M26.3,16.3 L27.6,19.6" id="Path" stroke="#FFFFFF" fill="#FFFFFF"></path>
                    <path d="M29.8,15.8 C29.7,17 29.6,18.2 29.5,19.4" id="Path" stroke="#FFFFFF" fill="#FFFFFF"></path>
                    <path d="M33,17 L31,20" id="Path" stroke="#FFFFFF" fill="#FFFFFF"></path>
                </g>
            </g>
            <g transform="translate(106.000000, 3.000000)">
                <g transform="translate(5.000000, 0.000000)" fill-rule="nonzero">
                    <circle id="dbacm_contentgov" fill="#BF2A61" cx="33.5" cy="33.2" r="33"></circle>
                    <g transform="translate(11.000000, 11.000000)" fill="#FFFFFF">
                        <rect id="Rectangle" x="2.7" y="31.5" width="40.1" height="2.4"></rect>
                        <rect id="Rectangle" x="4.1" y="10.5" width="37.3" height="2.4"></rect>
                        <rect id="Rectangle" x="0" y="35.4" width="45.3" height="2.4"></rect>
                        <polygon id="Path" points="22.7 0.9 1.3 8.1 1.3 9.4 44.1 9.4 44.1 8.1"></polygon>
                        <rect id="Rectangle" x="4.1" y="14.1" width="4.6" height="16.5"></rect>
                        <rect id="Rectangle" x="36.6" y="14.1" width="4.6" height="16.5"></rect>
                        <rect id="Rectangle" x="20.4" y="14.1" width="4.6" height="16.5"></rect>
                        <rect id="Rectangle" x="12.3" y="14.1" width="4.6" height="16.5"></rect>
                        <rect id="Rectangle" x="28.7" y="14.1" width="4.6" height="16.5"></rect>
                    </g>
                </g>
                <g transform="translate(0.812200, 69.453600)" fill="#457ABD" font-family="HelvNeueMediumforIBM, HelvNeue Medium for IBM" font-size="11" font-weight="normal">
                    <text id="CONTENT">
                        <tspan x="12.1995" y="8">CONTENT</tspan>
                    </text>
                    <text id="GOVERNANCE">
                        <tspan x="1.12" y="21.2">GOVERNANCE</tspan>
                    </text>
                </g>
            </g>
        </g>
        <g id="Group" transform="translate(703.000000, 544.000000)">
            <g id="dbacm_entdata">
                <circle id="Oval" fill="#335D80" fill-rule="nonzero" cx="36.1" cy="33.8" r="33"></circle>
                <g id="Group" transform="translate(0.393300, 68.514300)" fill="#4478BA" font-family="HelvNeueMediumforIBM, HelvNeue Medium for IBM" font-size="11" font-weight="normal">
                    <text id="ENTERPRISE">
                        <tspan x="0.181" y="8">ENTERPRISE</tspan>
                    </text>
                    <text id="DATA">
                        <tspan x="18.8055" y="21.2">DATA</tspan>
                    </text>
                </g>
            </g>
            <g transform="translate(15.000000, 16.000000)" fill="#FFFFFF" fill-rule="nonzero">
                <path d="M40.2,24.3 L39.5,24 C39.5,24 36.3,22.7 31.6,22.7 C28.9,22.7 26.2,23.1 23.6,24 L22.9,24.2 L22.9,1.8 L23.2,1.7 C25.9,0.8 28.7,0.4 31.5,0.4 C36.4,0.4 39.6,1.7 39.7,1.7 L40,1.8 L40,24.3 L40.2,24.3 Z M24,2.5 L24,22.8 C26.5,22.1 29.1,21.7 31.7,21.7 C35.3,21.7 38,22.4 39.2,22.8 L39.2,2.5 C38.3,2.2 35.5,1.3 31.7,1.3 C29,1.4 26.5,1.8 24,2.5 Z" id="Shape"></path>
                <polygon id="Path" points="41.9 26.1 22.5 26.1 22.5 25.1 40.8 25.1 40.8 3.4 41.9 3.4"></polygon>
                <path d="M5,13.8 L5,3.4 L4,3.4 L4,14.1 C4.3,14 4.7,13.9 5,13.8 Z" id="Path"></path>
                <path d="M22.7,1.7 C20,0.8 17.2,0.4 14.4,0.4 C9.5,0.4 6.3,1.7 6.2,1.7 L5.9,1.8 L5.9,13.7 C6.2,13.6 6.6,13.6 6.9,13.6 L6.9,2.5 C7.8,2.2 10.6,1.3 14.4,1.3 C17,1.3 19.6,1.7 22.1,2.5 L22.1,22.8 C20.5,22.3 19.3,22 17.6,21.8 L17.6,22.8 C19.4,23 20.7,23.4 22.4,23.9 L23.1,24.1 L23.1,1.7 L22.7,1.7 Z" id="Path"></path>
                <rect id="Rectangle" x="17.5" y="25.1" width="5.4" height="1"></rect>
                <g transform="translate(0.000000, 14.000000)">
                    <ellipse id="Oval" cx="8.6" cy="3.7" rx="7.5" ry="3.2"></ellipse>
                    <path d="M16.4,4.8 C16,6.5 12.7,7.8 8.6,7.8 C4.5,7.8 1.2,6.5 0.8,4.8 L0.8,4.8 L0.8,17.2 L0.8,17.2 C0.8,19 4.3,20.5 8.6,20.5 C12.9,20.5 16.4,19 16.4,17.2 L16.4,4.8 L16.4,4.8 Z" id="Path"></path>
                </g>
            </g>
        </g>
        <g id="Group" transform="translate(809.000000, 209.000000)">
            <g id="dbacm_entuserdir">
                <circle id="Oval" fill="#335D80" fill-rule="nonzero" cx="49.3" cy="33.2" r="33"></circle>
                <g id="Group" transform="translate(26.000000, 15.000000)">
                    <path d="M19,4.7 L19,0.2 L1,0.1 L1,4.6 L1,9.1 L0.9,32.9 L45.9,33.2 L46,9.4 L46,4.9 L19,4.7 Z M44.2,31.6 L2.2,31.3 L2.3,8.8 L44.3,9.1 L44.2,31.6 Z" id="Shape" fill="#FFFFFF" fill-rule="nonzero"></path>
                    <g transform="translate(18.000000, 13.000000)">
                        <path d="M9.6,11.4 L2.5,11.4 C1.5,11.4 0.7,12.2 0.7,13.2 L0.7,15 L11.5,15.1 L11.5,13.3 C11.3,12.2 10.5,11.4 9.6,11.4 Z" id="Path" fill="#FFFFFF" fill-rule="nonzero"></path>
                        <circle id="Oval" stroke="#FFFFFF" stroke-width="0.4312" cx="5.9" cy="5" r="4.2"></circle>
                    </g>
                </g>
                <g id="Group" transform="translate(0.000000, 67.000000)" fill="#4478BA" font-family="HelvNeueMediumforIBM, HelvNeue Medium for IBM" font-size="11" font-weight="normal">
                    <text id="ENTERPRISE">
                        <tspan x="16.7091" y="8.9657">ENTERPRISE</tspan>
                    </text>
                    <text id="USER-DIRECTORY">
                        <tspan x="3.5107" y="22.1654">USER DIRECTORY</tspan>
                    </text>
                </g>
            </g>
            <g transform="translate(17.000000, 215.000000)">
                <g id="dbacm_objectstorage" fill-rule="nonzero">
                    <circle id="Oval" fill="#335D80" cx="32.3" cy="32.8" r="32.3"></circle>
                    <g id="Group" transform="translate(16.000000, 12.000000)" fill="#FFFFFF">
                        <ellipse id="Oval" cx="16.3" cy="7.1" rx="15.1" ry="6.4"></ellipse>
                        <path d="M32,9.3 C31.2,12.7 24.5,15.3 16.3,15.3 C8.1,15.3 1.4,12.7 0.6,9.3 L0.5,9.3 L0.5,34.4 L0.5,34.4 C0.5,38.1 7.6,41.1 16.3,41.1 C25,41.1 32.1,38.1 32.1,34.4 L32,9.3 L32,9.3 Z" id="Path"></path>
                    </g>
                </g>
                <g transform="translate(7.062000, 67.340300)" fill="#4377BB" font-family="HelvNeueMediumforIBM, HelvNeue Medium for IBM" font-size="11" font-weight="normal">
                    <text id="OBJECT">
                        <tspan x="3.6875" y="8">OBJECT</tspan>
                    </text>
                    <text id="STORAGE">
                        <tspan x="0.1065" y="21.2">STORAGE</tspan>
                    </text>
                </g>
            </g>
            <g transform="translate(17.000000, 110.000000)">
                <g>
                    <g id="dbacm_librarycat" fill="#335D80" fill-rule="nonzero">
                        <circle id="Oval" cx="32.3" cy="32.7" r="32.3"></circle>
                    </g>
                    <g transform="translate(6.137000, 67.205700)" fill="#4377BB" font-family="HelvNeueMediumforIBM, HelvNeue Medium for IBM" font-size="11" font-weight="normal">
                        <text id="LIBRARY">
                            <tspan x="2.642" y="8">LIBRARY</tspan>
                        </text>
                        <text id="CATALOG">
                            <tspan x="0.4855" y="21.2">CATALOG</tspan>
                        </text>
                    </g>
                </g>
                <g transform="translate(9.000000, 11.000000)" fill-rule="nonzero">
                    <path d="M46,37.5 C38.7,33.4 31.5,33.4 24.3,37.6 C24.3,37.1 24.2,36.7 24.2,36.4 C24.2,26.1 24.2,15.8 24.2,5.5 C24.2,4.5 24.5,4 25.3,3.6 C31.9,0.1 38.5,-0.1 45,3.9 C45.5,4.2 46,5 46,5.6 C46.1,16 46,26.5 46,36.9 C46.1,37 46,37.2 46,37.5 Z M27.6,27.8 C27.4,29.7 27.4,29.7 29,29.7 C32.6,29.7 36.2,29.7 39.8,29.7 C40.8,29.7 41.8,29.7 42.8,29.7 C42.8,29 42.8,28.4 42.8,27.8 C37.6,27.8 32.6,27.8 27.6,27.8 Z M42.7,22.8 C43,20.9 42.9,20.9 41.2,20.9 C37.1,20.9 33,20.9 28.9,20.9 C27.2,20.9 27.1,21 27.6,22.8 C32.6,22.8 37.6,22.8 42.7,22.8 Z M27.6,17.7 C27.3,19.5 27.4,19.6 29,19.6 C33.1,19.6 37.2,19.6 41.3,19.6 C41.8,19.6 42.3,19.6 42.8,19.6 C42.8,18.9 42.8,18.3 42.8,17.7 C37.6,17.7 32.6,17.7 27.6,17.7 Z M27.5,12.6 C32.6,12.6 37.7,12.6 42.7,12.6 C42.7,11.9 42.7,11.4 42.7,10.7 C38,10.7 33.5,10.7 28.9,10.7 C27.3,10.8 27.3,10.8 27.5,12.6 Z M42.8,7.6 C37.7,7.6 32.6,7.6 27.5,7.6 C27.5,8.2 27.5,8.7 27.5,9.2 C32.6,9.2 37.7,9.2 42.8,9.2 C42.8,8.6 42.8,8.1 42.8,7.6 Z M42.8,24.6 C37.7,24.6 32.6,24.6 27.5,24.6 C27.5,25.2 27.5,25.7 27.5,26.2 C32.7,26.2 37.7,26.2 42.8,26.2 C42.8,25.6 42.8,25.1 42.8,24.6 Z M42.8,14.4 C37.6,14.4 32.6,14.4 27.5,14.4 C27.5,15 27.5,15.5 27.5,16 C32.7,16 37.7,16 42.8,16 C42.8,15.4 42.8,14.9 42.8,14.4 Z" id="Shape" fill="#FFFFFF"></path>
                    <path d="M22.3,37.6 C15.1,33.5 7.9,33.5 0.6,37.6 C0.6,37 0.5,36.6 0.5,36.2 C0.5,26 0.5,15.8 0.5,5.6 C0.5,4.5 0.9,4 1.8,3.5 C8.4,0.1 15,1.77635684e-15 21.4,4 C22.1,4.4 22.4,4.9 22.4,5.7 C22.4,16 22.4,26.3 22.4,36.6 C22.4,36.8 22.3,37.1 22.3,37.6 Z M10.6,16 C10.6,13.2 10.6,10.4 10.6,7.6 C8.3,7.6 6,7.6 3.7,7.6 C3.7,10.5 3.7,13.2 3.7,16 C6,16 8.2,16 10.6,16 Z M11.5,27.8 C11.5,27.8 11.5,27.8 11.5,27.8 C9.2,27.8 6.9,27.8 4.7,27.8 C4,27.8 3.6,28 3.6,28.8 C3.6,29.6 4,29.8 4.7,29.8 C9.1,29.8 13.5,29.8 17.9,29.8 C18.6,29.8 19.1,29.7 19.1,28.8 C19.1,27.8 18.5,27.9 17.8,27.9 C15.8,27.8 13.7,27.8 11.5,27.8 Z M19,22.8 C19.3,21 19.3,20.9 17.7,20.9 C13.5,20.9 9.3,20.9 5.1,20.9 C3.5,20.9 3.4,21.1 3.8,22.8 C8.9,22.8 13.9,22.8 19,22.8 Z M3.9,17.6 C3.5,19.4 3.6,19.5 5.2,19.5 C6.7,19.5 8.2,19.5 9.7,19.5 C12.5,19.5 15.3,19.5 18.2,19.5 C18.9,19.5 19.3,19.3 19.3,18.5 C19.3,17.8 19,17.6 18.3,17.6 C13.5,17.6 8.7,17.6 3.9,17.6 Z M19.1,24.6 C13.9,24.6 8.8,24.6 3.7,24.6 C3.7,25.2 3.7,25.7 3.7,26.2 C8.9,26.2 13.9,26.2 19.1,26.2 C19.1,25.6 19.1,25.1 19.1,24.6 Z M15.5,12.7 C15.5,12.7 15.5,12.7 15.5,12.7 C16.4,12.7 17.2,12.7 18.1,12.7 C18.8,12.7 19.2,12.6 19.2,11.7 C19.2,10.9 18.8,10.7 18.1,10.7 C16.5,10.7 14.8,10.7 13.2,10.7 C12.5,10.7 12.1,10.9 12.1,11.7 C12.1,12.5 12.5,12.7 13.2,12.7 C14,12.7 14.8,12.7 15.5,12.7 Z M19.1,7.5 C16.9,7.5 14.9,7.5 12.8,7.5 C12.6,7.5 12.1,8.1 12.1,8.4 C12.1,8.7 12.5,9.3 12.7,9.3 C14.8,9.4 16.9,9.3 19,9.3 C19.1,8.6 19.1,8.2 19.1,7.5 Z M19.1,16.1 C19,15.3 19.6,14.3 18.4,14.3 C16.6,14.2 14.8,14.2 12.9,14.3 C12.6,14.3 12.2,14.9 12.2,15.2 C12.2,15.4 12.7,16 12.9,16 C14.9,16.1 17,16.1 19.1,16.1 Z" id="Shape" fill="#FFFFFF"></path>
                    <path d="M27.5,37.5 C33,35.3 38.4,35.2 43.8,37.8 C44.1,38 44.3,38.5 44.4,38.8 C44.5,38.9 44.4,39.2 44.4,39.3 C44.4,39.7 44.4,40.1 44.4,40.8 C39.2,37.1 33.5,36.4 27.5,37.5 Z" id="Path" fill="#FFFFFF"></path>
                    <path d="M2.4,40.5 C2,38 2,38 4.3,37.1 C8.7,35.3 14.4,35.3 18.1,37 C16.6,37 14.7,36.9 13,37 C11.1,37.2 9.2,37.5 7.4,38.1 C5.6,38.8 4,39.8 2.4,40.5 Z" id="Path" fill="#FFFFFF"></path>
                    <path d="M27.6,27.8 C32.7,27.8 37.7,27.8 42.8,27.8 C42.8,28.4 42.8,28.9 42.8,29.7 C41.8,29.7 40.8,29.7 39.8,29.7 C36.2,29.7 32.6,29.7 29,29.7 C27.3,29.7 27.3,29.7 27.6,27.8 Z" id="Path" fill="#335D80"></path>
                    <path d="M42.7,22.8 C37.6,22.8 32.6,22.8 27.6,22.8 C27.1,21.1 27.2,20.9 28.9,20.9 C33,20.9 37.1,20.9 41.2,20.9 C43,20.9 43,21 42.7,22.8 Z" id="Path" fill="#335D80"></path>
                    <path d="M27.6,17.7 C32.7,17.7 37.7,17.7 42.8,17.7 C42.8,18.3 42.8,18.8 42.8,19.6 C42.3,19.6 41.8,19.6 41.3,19.6 C37.2,19.6 33.1,19.6 29,19.6 C27.3,19.5 27.3,19.5 27.6,17.7 Z" id="Path" fill="#335D80"></path>
                    <path d="M27.5,12.6 C27.3,10.7 27.3,10.7 28.9,10.7 C33.5,10.7 38,10.7 42.7,10.7 C42.7,11.4 42.7,11.9 42.7,12.6 C37.7,12.6 32.7,12.6 27.5,12.6 Z" id="Path" fill="#335D80"></path>
                    <path d="M42.8,7.6 C42.8,8.1 42.8,8.6 42.8,9.2 C37.7,9.2 32.7,9.2 27.5,9.2 C27.5,8.7 27.5,8.2 27.5,7.6 C32.6,7.6 37.7,7.6 42.8,7.6 Z" id="Path" fill="#335D80"></path>
                    <path d="M42.8,24.6 C42.8,25.1 42.8,25.6 42.8,26.2 C37.7,26.2 32.7,26.2 27.5,26.2 C27.5,25.7 27.5,25.2 27.5,24.6 C32.6,24.6 37.7,24.6 42.8,24.6 Z" id="Path" fill="#335D80"></path>
                    <path d="M42.8,14.4 C42.8,15 42.8,15.4 42.8,16 C37.7,16 32.6,16 27.5,16 C27.5,15.5 27.5,15 27.5,14.4 C32.6,14.4 37.6,14.4 42.8,14.4 Z" id="Path" fill="#335D80"></path>
                    <path d="M10.6,16 C8.2,16 6,16 3.7,16 C3.7,13.2 3.7,10.4 3.7,7.6 C6,7.6 8.2,7.6 10.6,7.6 C10.6,10.4 10.6,13.2 10.6,16 Z" id="Path" fill="#335D80"></path>
                    <path d="M11.5,27.8 C13.6,27.8 15.8,27.8 17.9,27.8 C18.6,27.8 19.2,27.7 19.2,28.7 C19.2,29.6 18.7,29.7 18,29.7 C13.6,29.7 9.2,29.7 4.8,29.7 C4.1,29.7 3.7,29.6 3.7,28.7 C3.7,27.9 4,27.7 4.8,27.7 C7,27.8 9.3,27.8 11.5,27.8 C11.5,27.8 11.5,27.8 11.5,27.8 Z" id="Path" fill="#335D80"></path>
                    <path d="M19,22.8 C13.9,22.8 8.9,22.8 3.8,22.8 C3.4,21.1 3.5,20.9 5.1,20.9 C9.3,20.9 13.5,20.9 17.7,20.9 C19.3,21 19.4,21 19,22.8 Z" id="Path" fill="#335D80"></path>
                    <path d="M3.9,17.6 C8.7,17.6 13.5,17.6 18.3,17.6 C19,17.6 19.3,17.8 19.3,18.5 C19.3,19.3 18.9,19.5 18.2,19.5 C15.4,19.5 12.6,19.5 9.7,19.5 C8.2,19.5 6.7,19.5 5.2,19.5 C3.5,19.5 3.5,19.4 3.9,17.6 Z" id="Path" fill="#335D80"></path>
                    <path d="M19.1,24.6 C19.1,25.1 19.1,25.6 19.1,26.2 C14,26.2 8.9,26.2 3.7,26.2 C3.7,25.7 3.7,25.2 3.7,24.6 C8.8,24.6 13.9,24.6 19.1,24.6 Z" id="Path" fill="#335D80"></path>
                    <path d="M15.5,12.7 C14.7,12.7 14,12.7 13.2,12.7 C12.5,12.7 12.1,12.5 12.1,11.7 C12.1,10.9 12.5,10.7 13.2,10.7 C14.8,10.7 16.5,10.7 18.1,10.7 C18.8,10.7 19.2,10.9 19.2,11.7 C19.2,12.5 18.8,12.7 18.1,12.7 C17.3,12.7 16.4,12.7 15.5,12.7 C15.5,12.7 15.5,12.7 15.5,12.7 Z" id="Path" fill="#335D80"></path>
                    <path d="M19.1,7.5 C19.1,8.2 19.1,8.7 19.1,9.3 C17,9.3 14.9,9.3 12.8,9.3 C12.6,9.3 12.2,8.7 12.2,8.4 C12.2,8.1 12.6,7.5 12.9,7.5 C14.9,7.4 16.9,7.5 19.1,7.5 Z" id="Path" fill="#335D80"></path>
                    <path d="M19.1,16.1 C16.9,16.1 14.9,16.1 12.9,16.1 C12.6,16.1 12.1,15.6 12.2,15.3 C12.2,14.9 12.7,14.4 12.9,14.4 C14.7,14.3 16.5,14.3 18.4,14.4 C19.7,14.3 19.1,15.2 19.1,16.1 Z" id="Path" fill="#335D80"></path>
                </g>
            </g>
        </g>
        <g id="Group" transform="translate(452.000000, 180.000000)">
            <g transform="translate(3.396300, 71.393800)" fill="#4277BA" font-family="HelvNeueMediumforIBM, HelvNeue Medium for IBM" font-size="11" font-weight="normal">
                <text id="USER">
                    <tspan x="16.0405" y="8">USER</tspan>
                </text>
                <text id="INTERFACE">
                    <tspan x="0.651" y="21.2">INTERFACE</tspan>
                </text>
            </g>
            <ellipse id="dbacm_ui" fill="#BF2A61" fill-rule="nonzero" cx="33.6" cy="33.6" rx="33" ry="32.9"></ellipse>
            <g transform="translate(15.000000, 11.000000)">
                <path d="M23.2,44.6 C22.7,43.4 21.8,42.7 20.6,42.3 C17.6,41.2 14.9,39.7 12.4,37.8 C10.2,36.2 7.6,35.8 5,35.7 C4.4,35.7 3.8,35.7 3.2,35.6 C1.7,35.4 1.2,34.4 1.8,33 C2.5,31.4 4.1,30.6 6,30.8 C7.2,31 8.5,31.3 9.7,31.3 C10.7,31.3 11.7,31.2 12.6,31 C13.6,30.8 13.9,30.2 13.6,29.2 C12.8,26.2 12,23.1 11.2,20.1 C10.3,16.7 9.3,13.3 8.3,9.9 C8.1,9.2 8.1,8.4 8.1,7.7 C8.1,6.9 8.5,6.3 9.2,6 C10,5.7 10.8,5.7 11.2,6.4 C12,7.6 12.7,8.8 13.1,10.1 C14,12.8 14.7,15.5 15.5,18.2 C15.6,18.6 15.8,18.9 16.1,19.5 C16.6,18.3 16.2,17 17.6,16.6 C18.8,16.3 19.8,16.7 20.7,17.7 C21,17.2 21.2,16.9 21.4,16.5 C22.1,15 23.6,14.7 24.9,15.7 C25.1,15.9 25.3,16 25.5,16.2 C25.9,16.6 26.3,16.6 26.7,16.1 C27.7,15.1 28.5,15 29.7,15.7 C31.8,17 33,18.9 34,21 C35.3,23.8 36,26.7 36.4,29.8 C36.4,29.9 36.5,30 36.6,30.1 C36.6,31.3 36.6,32.5 36.6,33.7 C36.1,35.6 35.6,37.6 35.9,39.6 C33.9,40.4 32,41.1 30.1,41.8 C27.8,42.7 25.6,43.6 23.3,44.5 C23.3,44.6 23.3,44.6 23.2,44.6 Z" id="Path" fill="#FFFFFF" fill-rule="nonzero"></path>
                <rect id="Rectangle" stroke="#FFFFFF" stroke-width="1.7521" x="0.4" y="0.7" width="18" height="12.3"></rect>
            </g>
        </g>
        <g id="Group" transform="translate(315.000000, 318.000000)">
            <g transform="translate(0.877700, 67.824000)" fill="#4277BA" font-family="HelvNeueMediumforIBM, HelvNeue Medium for IBM" font-size="11" font-weight="normal">
                <text id="MULTICHANNEL">
                    <tspan x="0.898" y="8">MULTICHANNEL</tspan>
                </text>
                <text id="CAPTURE">
                    <tspan x="18.8285" y="21.2">CAPTURE</tspan>
                </text>
            </g>
            <ellipse id="dbacm_mcc" fill="#BF2A61" fill-rule="nonzero" cx="45.1" cy="33.1" rx="33" ry="32.9"></ellipse>
        </g>
        <g id="Group" transform="translate(314.000000, 469.000000)">
            <g transform="translate(0.732800, 71.564200)" fill="#4277BA" font-family="HelvNeueMediumforIBM, HelvNeue Medium for IBM" font-size="11" font-weight="normal">
                <text id="PAPER-&amp;-DIGITAL">
                    <tspan x="0.209" y="8">PAPER &amp; DIGITAL</tspan>
                </text>
                <text id="CONTENT">
                    <tspan x="19.7995" y="21.2">CONTENT</tspan>
                </text>
            </g>
            <g id="dbacm_paperdigcontent" transform="translate(13.000000, 0.000000)" fill="#BF2A61" fill-rule="nonzero">
                <ellipse id="Oval" cx="33.1" cy="33.8" rx="33" ry="32.9"></ellipse>
            </g>
        </g>
        <g id="Group" transform="translate(30.000000, 214.000000)">
            <g transform="translate(0.000000, 108.000000)">
                <g id="dbacm_extclientpartner" transform="translate(15.000000, 0.000000)" fill-rule="nonzero">
                    <ellipse id="Oval" fill="#C2952E" cx="33" cy="33.7" rx="33" ry="32.9"></ellipse>
                    <g id="Group" transform="translate(20.000000, 17.000000)" fill="#FFFFFF">
                        <path d="M21.1,24.8 L4.8,24.7 C2.6,24.7 0.7,26.4 0.7,28.8 L0.7,32.9 L25.1,33 L25.1,28.9 C25.2,26.6 23.3,24.8 21.1,24.8 Z" id="Path"></path>
                        <path d="M13,20.6 C7.3,20.6 2.7,15.9 2.7,10.3 C2.7,4.6 7.4,0 13,0 C18.7,0 23.3,4.7 23.3,10.3 C23.3,16 18.7,20.6 13,20.6 Z M13,1.2 C8.1,1.2 4,5.3 4,10.2 C4,15.1 8.1,19.2 13,19.2 C17.9,19.2 22,15.1 22,10.2 C22,5.3 17.9,1.2 13,1.2 Z" id="Shape"></path>
                    </g>
                </g>
                <g transform="translate(0.796000, 70.254300)" fill="#457ABD" font-family="HelvNeueMediumforIBM, HelvNeue Medium for IBM" font-size="11" font-weight="normal">
                    <text id="EXTERNAL">
                        <tspan x="20.1035" y="8">EXTERNAL</tspan>
                    </text>
                    <text id="CLIENT/PARTNER">
                        <tspan x="1.096" y="21.2">CLIENT/PARTNER</tspan>
                    </text>
                </g>
            </g>
            <g id="dbacm_mobileapp" transform="translate(12.000000, 325.000000)">
                <ellipse id="Oval" fill="#ECC01B" fill-rule="nonzero" cx="35.5" cy="33.3" rx="33" ry="32.9"></ellipse>
                <g id="Group" transform="translate(21.000000, 8.000000)" fill="#FFFFFF" fill-rule="nonzero">
                    <path d="M22.9,49.9 L6.2,49.9 C3.1,49.9 0.5,47.3 0.5,44.2 L0.5,6.5 C0.5,3.4 3.1,0.8 6.2,0.8 L22.9,0.8 C26,0.8 28.6,3.4 28.6,6.5 L28.6,44.2 C28.6,47.4 26.1,49.9 22.9,49.9 Z M6.3,2.3 C4,2.3 2.1,4.2 2.1,6.5 L2.1,44.2 C2.1,46.5 4,48.4 6.3,48.4 L23,48.4 C25.3,48.4 27.2,46.5 27.2,44.2 L27.2,6.5 C27.2,4.2 25.3,2.3 23,2.3 L6.3,2.3 L6.3,2.3 Z" id="Shape"></path>
                    <rect id="Rectangle" x="4.2" y="6.5" width="20.8" height="34.5"></rect>
                    <ellipse id="Oval" cx="14.6" cy="44.9" rx="2" ry="2.1"></ellipse>
                    <rect id="Rectangle" x="11.8" y="3.7" width="5.5" height="1"></rect>
                </g>
                <g id="Group" transform="translate(0.475100, 69.459500)" fill="#4277BA" font-family="HelvNeueMediumforIBM, HelvNeue Medium for IBM" font-size="11" font-weight="normal">
                    <text id="MOBILE">
                        <tspan x="15.496" y="8">MOBILE</tspan>
                    </text>
                    <text id="APPLICATION">
                        <tspan x="0.6235" y="21.2">APPLICATION</tspan>
                    </text>
                </g>
            </g>
            <g transform="translate(3.000000, 216.000000)">
                <g transform="translate(0.680200, 71.084000)" fill="#4277BA" font-family="HelvNeueMediumforIBM, HelvNeue Medium for IBM" font-size="11" font-weight="normal">
                    <text id="PAPER-&amp;-DIGITAL">
                        <tspan x="0.209" y="8">PAPER &amp; DIGITAL</tspan>
                    </text>
                    <text id="CONTENT">
                        <tspan x="19.7995" y="21.2">CONTENT</tspan>
                    </text>
                </g>
                <ellipse id="dbacm_paperdigcontent" fill="#BF2A61" fill-rule="nonzero" cx="46" cy="33.3" rx="33" ry="32.9"></ellipse>
            </g>
            <g>
                <g transform="translate(0.795300, 70.683700)" fill="#4277BA" font-family="HelvNeueMediumforIBM, HelvNeue Medium for IBM" font-size="11" font-weight="normal">
                    <text id="EXTERNAL">
                        <tspan x="20.1035" y="8">EXTERNAL</tspan>
                    </text>
                    <text id="COLLABORATION">
                        <tspan x="1.261" y="21.2">COLLABORATION</tspan>
                    </text>
                </g>
                <ellipse id="dbacm_extcollab" fill="#BF2A61" fill-rule="nonzero" cx="49" cy="32.9" rx="33" ry="32.9"></ellipse>
            </g>
        </g>
        <g id="Group" transform="translate(116.000000, 364.000000)">
            <polyline id="Path" stroke="#4478BA" stroke-width="1.5" points="79.4 6.8 23.2 6.8 23.2 98.3 0.7 98.3"></polyline>
            <polygon id="Path" fill="#4478BA" fill-rule="nonzero" points="74.4 0.7 73.4 1.8 78.8 6.8 73.4 11.9 74.4 13 81 6.8"></polygon>
        </g>
        <g id="Group" transform="translate(116.000000, 349.000000)">
            <path d="M2.4,6.7 L79.4,6.7" id="Path" stroke="#4478BA" stroke-width="1.5"></path>
            <polygon id="Path" fill="#4478BA" fill-rule="nonzero" points="7.3 12.9 8.4 11.8 2.9 6.8 8.4 1.7 7.3 0.6 0.7 6.8"></polygon>
            <polygon id="Path" fill="#4478BA" fill-rule="nonzero" points="74.4 12.9 73.4 11.8 78.8 6.8 73.4 1.7 74.4 0.6 81 6.8"></polygon>
        </g>
        <g id="Group" transform="translate(479.000000, 275.000000)">
            <path d="M6.6,2 L6.6,41.6" id="Path" stroke="#4478BA" stroke-width="1.5"></path>
            <polygon id="Path" fill="#4478BA" fill-rule="nonzero" points="0.4 6.9 1.5 8 6.6 2.5 11.6 8 12.7 6.9 6.6 0.3"></polygon>
            <polygon id="Path" fill="#4478BA" fill-rule="nonzero" points="0.4 36.6 1.5 35.6 6.6 41 11.6 35.6 12.7 36.6 6.6 43.2"></polygon>
        </g>
        <g id="Group" transform="translate(479.000000, 422.000000)">
            <path d="M6.6,2.1 L6.6,45.8" id="Path" stroke="#4478BA" stroke-width="1.5"></path>
            <polygon id="Path" fill="#4478BA" fill-rule="nonzero" points="0.4 7.1 1.5 8.1 6.6 2.7 11.6 8.1 12.7 7.1 6.6 0.5"></polygon>
            <polygon id="Path" fill="#4478BA" fill-rule="nonzero" points="0.4 40.8 1.5 39.8 6.6 45.2 11.6 39.8 12.7 40.8 6.6 47.4"></polygon>
        </g>
        <g id="Group" transform="translate(353.000000, 413.000000)">
            <path d="M7.1,1.8 L7.1,54.8" id="Path" stroke="#4478BA" stroke-width="1.5"></path>
            <polygon id="Path" fill="#4478BA" fill-rule="nonzero" points="0.9 6.8 2 7.8 7.1 2.4 12.1 7.8 13.2 6.8 7.1 0.2"></polygon>
            <polygon id="Path" fill="#4478BA" fill-rule="nonzero" points="0.9 49.8 2 48.8 7.1 54.2 12.1 48.8 13.2 49.8 7.1 56.4"></polygon>
        </g>
        <g id="Group" transform="translate(452.000000, 469.000000)">
            <text id="WORKFLOW" fill="#4277BA" font-family="HelvNeueMediumforIBM, HelvNeue Medium for IBM" font-size="11" font-weight="normal">
                <tspan x="1.4956" y="76.176">WORKFLOW</tspan>
            </text>
            <circle id="dbacm_workflow" fill="#BF2A61" fill-rule="nonzero" cx="33.6" cy="33.2" r="32.3"></circle>
            <path d="M45.3,38.8 C41.7,38.8 38.7,41.5 38.4,45.1 L30,45.1 C29.9,43.7 29.3,42.4 28.5,41.4 L41,28.9 C42.2,29.9 43.7,30.5 45.4,30.5 C49.2,30.5 52.4,27.4 52.4,23.5 C52.4,19.7 49.3,16.5 45.4,16.5 C41.8,16.5 38.8,19.2 38.5,22.8 L30.1,22.8 C29.8,19.3 26.8,16.5 23.2,16.5 C19.4,16.5 16.2,19.6 16.2,23.5 C16.2,27.3 19.3,30.5 23.2,30.5 C26.8,30.5 29.8,27.8 30.1,24.2 L38.5,24.2 C38.6,25.6 39.2,26.9 40,27.9 L27.5,40.4 C26.3,39.4 24.8,38.8 23.1,38.8 C19.3,38.8 16.1,41.9 16.1,45.8 C16.1,49.7 19.2,52.8 23.1,52.8 C26.7,52.8 29.7,50.1 30,46.5 L38.4,46.5 C38.7,50 41.7,52.8 45.3,52.8 C49.1,52.8 52.3,49.7 52.3,45.8 C52.3,41.9 49.1,38.8 45.3,38.8 Z M23,29 C19.9,29 17.4,26.5 17.4,23.4 C17.4,20.3 19.9,17.8 23,17.8 C26.1,17.8 28.6,20.3 28.6,23.4 C28.6,26.5 26.1,29 23,29 Z M39.7,23.4 C39.7,20.3 42.2,17.8 45.3,17.8 C48.4,17.8 50.9,20.3 50.9,23.4 C50.9,26.5 48.4,29 45.3,29 C42.2,29 39.7,26.5 39.7,23.4 Z M23,51.3 C19.9,51.3 17.4,48.8 17.4,45.7 C17.4,42.6 19.9,40.1 23,40.1 C26.1,40.1 28.6,42.6 28.6,45.7 C28.6,48.8 26.1,51.3 23,51.3 Z" id="Shape" fill="#FFFFFF" fill-rule="nonzero"></path>
        </g>
        <g id="Group" transform="translate(479.000000, 93.000000)">
            <path d="M6.6,79 L6.6,0.6" id="Path" stroke="#457ABD" stroke-width="1.482"></path>
            <polygon id="Path" fill="#457ABD" fill-rule="nonzero" points="12.6 74.1 11.6 73.1 6.6 78.4 1.6 73.1 0.5 74.1 6.6 80.6"></polygon>
        </g>
        <g id="Group" transform="translate(772.000000, 346.000000)">
            <path d="M1.7,7 L47.7,7" id="Path" stroke="#4478BA" stroke-width="1.5"></path>
            <polygon id="Path" fill="#4478BA" fill-rule="nonzero" points="6.7 13.1 7.7 12 2.3 7 7.7 2 6.7 0.9 0.1 7"></polygon>
            <polygon id="Path" fill="#4478BA" fill-rule="nonzero" points="42.7 13.1 41.7 12 47.1 7 41.7 2 42.7 0.9 49.3 7"></polygon>
        </g>
        <g id="Group" transform="translate(343.000000, 479.000000)" fill-rule="nonzero">
            <path d="M3,45.3 C2.3,45.1 1.7,44.9 1.3,44.3 C1,43.9 0.8,43.4 0.7,42.8 C0.7,42.6 0.7,42.4 0.7,42.2 C0.7,29.3 0.7,16.5 0.7,3.6 C0.7,2.6 1,1.8 1.8,1.1 C2.3,0.7 2.9,0.5 3.6,0.5 C7.2,0.5 10.8,0.5 14.3,0.5 C18,0.5 21.8,0.5 25.5,0.5 C25.8,0.5 25.9,0.6 26.1,0.8 C28.1,3 30.1,5.2 32.2,7.4 C32.6,7.9 33.1,8.3 33.5,8.8 C33.6,9 33.7,9.2 33.7,9.4 C33.7,19 33.7,28.6 33.7,38.2 C33.7,39.5 33.7,40.9 33.7,42.2 C33.7,43.8 33,44.7 31.4,45.1 C31.4,45.1 31.3,45.1 31.3,45.1 C21.8,45.3 12.4,45.3 3,45.3 Z M24.1,3 C23.9,3 23.8,3 23.7,3 C17,3 10.2,3 3.5,3 C2.9,3 2.8,3.1 2.8,3.7 C2.8,16.6 2.8,29.5 2.8,42.4 C2.8,42.9 2.9,43.1 3.5,43.1 C12.5,43.1 21.5,43.1 30.6,43.1 C31.1,43.1 31.3,43 31.3,42.4 C31.3,32 31.3,21.6 31.3,11.2 C31.3,10.9 31.2,10.8 30.9,10.8 C29.1,10.8 27.4,10.8 25.6,10.8 C24.7,10.8 24.1,10.3 24.1,9.3 C24.1,7.3 24.1,5.4 24.1,3.4 C24.1,3.3 24.1,3.2 24.1,3 Z M26.5,4.8 C26.5,4.9 26.5,4.9 26.5,4.8 C26.4,6 26.4,7.1 26.4,8.2 C26.4,8.5 26.5,8.5 26.7,8.5 C27.5,8.5 28.2,8.5 29,8.5 C29.2,8.5 29.5,8.5 29.7,8.5 C29.7,8.5 29.7,8.4 29.7,8.4 C28.7,7.2 27.6,6 26.5,4.8 Z" id="Shape" fill="#FFFFFF"></path>
            <path d="M18.4,13.8 C18.4,13.9 18.4,14 18.4,14.1 C18.4,15.5 18.4,17 18.4,18.4 C18.4,19.1 18.8,19.5 19.5,19.5 C20.8,19.5 22.1,19.5 23.4,19.5 C23.6,19.5 23.7,19.6 23.7,19.8 C23.7,27.4 23.7,35 23.7,42.6 C23.7,43 23.6,43.1 23.2,43.1 C16.6,43.1 10,43.1 3.4,43.1 C3,43.1 2.9,43 2.9,42.6 C2.9,33.2 2.9,23.7 2.9,14.3 C2.9,13.9 3,13.8 3.4,13.8 C8.3,13.8 13.2,13.8 18.2,13.8 C18.2,13.8 18.3,13.8 18.4,13.8 Z M13,30.6 C15.3,30.6 17.6,30.6 19.9,30.6 C20,30.6 20.2,30.6 20.3,30.6 C20.6,30.5 20.8,30.3 20.8,30 C20.8,29.6 20.5,29.4 20,29.4 C15.4,29.4 10.7,29.4 6.1,29.4 C6,29.4 5.9,29.4 5.7,29.4 C5.5,29.5 5.3,29.6 5.3,29.9 C5.3,30.2 5.3,30.4 5.6,30.5 C5.8,30.6 6,30.6 6.1,30.6 C8.4,30.6 10.7,30.6 13,30.6 Z M13,25.3 C10.7,25.3 8.4,25.3 6.1,25.3 C6,25.3 5.9,25.3 5.8,25.3 C5.3,25.4 5.1,25.9 5.4,26.3 C5.6,26.6 5.8,26.6 6.1,26.6 C10.7,26.6 15.3,26.6 19.9,26.6 C20,26.6 20.1,26.6 20.2,26.6 C20.4,26.6 20.6,26.4 20.7,26.2 C20.8,26 20.8,25.7 20.5,25.6 C20.3,25.5 20.1,25.4 19.9,25.4 C17.6,25.3 15.3,25.3 13,25.3 Z M13,33.5 C10.7,33.5 8.4,33.5 6.1,33.5 C6,33.5 5.8,33.5 5.7,33.5 C5.5,33.6 5.3,33.8 5.2,34 C5.2,34.2 5.3,34.5 5.6,34.6 C5.7,34.6 5.9,34.7 6.1,34.7 C10.7,34.7 15.3,34.7 20,34.7 C20.1,34.7 20.2,34.7 20.3,34.7 C20.6,34.7 20.7,34.5 20.8,34.3 C20.9,34.1 20.8,33.8 20.6,33.7 C20.4,33.6 20.2,33.6 20,33.6 C17.6,33.5 15.3,33.5 13,33.5 Z M13,22.3 C15.3,22.3 17.6,22.3 19.9,22.3 C20,22.3 20.1,22.3 20.3,22.3 C20.6,22.2 20.8,22 20.8,21.7 C20.8,21.3 20.5,21.1 20,21.1 C15.4,21.1 10.8,21.1 6.2,21.1 C6.1,21.1 5.9,21.1 5.8,21.1 C5.5,21.2 5.4,21.3 5.3,21.6 C5.3,21.9 5.4,22.1 5.6,22.2 C5.7,22.3 5.9,22.3 6.1,22.3 C8.3,22.3 10.6,22.3 13,22.3 Z" id="Shape" fill="#BF2A61"></path>
            <path d="M16.7,26 C13.6,26 10.4,26 7.3,26 C7,26 6.8,26 6.6,25.8 C6.3,25.6 6.2,25.3 6.2,25 C6.3,24.7 6.5,24.4 6.8,24.3 C7,24.3 7.1,24.2 7.3,24.2 C13.7,24.2 20,24.2 26.4,24.2 C27.1,24.2 27.5,24.5 27.5,25.1 C27.5,25.5 27.2,25.8 26.8,25.9 C26.6,25.9 26.4,25.9 26.3,25.9 C23,26 19.8,26 16.7,26 Z" id="Path" fill="#FFFFFF"></path>
            <path d="M16.7,18.7 C19.9,18.7 23,18.7 26.2,18.7 C26.5,18.7 26.8,18.8 27,18.9 C27.3,19.1 27.3,19.4 27.2,19.8 C27.1,20.1 26.9,20.3 26.6,20.4 C26.4,20.4 26.3,20.4 26.1,20.4 C19.8,20.4 13.5,20.4 7.2,20.4 C6.8,20.4 6.5,20.4 6.2,20 C5.8,19.5 6.1,18.8 6.8,18.7 C7,18.7 7.1,18.7 7.3,18.7 C10.4,18.7 13.6,18.7 16.7,18.7 Z" id="Path" fill="#FFFFFF"></path>
            <path d="M16.7,30 C19.8,30 23,30 26.1,30 C26.4,30 26.7,30.1 26.9,30.2 C27.2,30.4 27.3,30.7 27.2,31.1 C27.1,31.4 26.9,31.6 26.5,31.7 C26.4,31.7 26.2,31.7 26.1,31.7 C19.8,31.7 13.5,31.7 7.1,31.7 C6.9,31.7 6.7,31.7 6.5,31.6 C6.2,31.5 6,31.1 6,30.8 C6,30.5 6.3,30.1 6.6,30.1 C6.8,30.1 7,30 7.1,30 C10.4,30 13.6,30 16.7,30 Z" id="Path" fill="#FFFFFF"></path>
            <path d="M16.7,14.6 C13.5,14.6 10.4,14.6 7.2,14.6 C7,14.6 6.7,14.6 6.5,14.5 C6.2,14.3 6,14 6.1,13.7 C6.2,13.3 6.4,13.1 6.7,13 C6.9,13 7.1,13 7.2,13 C13.5,13 19.8,13 26.1,13 C26.8,13 27.2,13.3 27.2,13.9 C27.2,14.3 26.9,14.6 26.5,14.7 C26.3,14.7 26.2,14.7 26,14.7 C23,14.6 19.8,14.6 16.7,14.6 Z" id="Path" fill="#FFFFFF"></path>
        </g>
        <g id="Group" transform="translate(62.000000, 440.000000)" fill-rule="nonzero">
            <path d="M2.9,45.3 C2.2,45.1 1.6,44.9 1.2,44.3 C0.9,43.9 0.7,43.4 0.6,42.8 C0.6,42.6 0.6,42.4 0.6,42.2 C0.6,29.3 0.6,16.5 0.6,3.6 C0.6,2.6 0.9,1.8 1.7,1.1 C2.2,0.7 2.8,0.5 3.5,0.5 C7.1,0.5 10.7,0.5 14.2,0.5 C17.9,0.5 21.7,0.5 25.4,0.5 C25.7,0.5 25.8,0.6 26,0.8 C28,3 30,5.2 32.1,7.4 C32.5,7.9 33,8.3 33.4,8.8 C33.5,9 33.6,9.2 33.6,9.4 C33.6,19 33.6,28.6 33.6,38.2 C33.6,39.5 33.6,40.9 33.6,42.2 C33.6,43.8 32.9,44.7 31.3,45.1 C31.3,45.1 31.2,45.1 31.2,45.1 C21.7,45.3 12.3,45.3 2.9,45.3 Z M24.1,2.9 C23.9,2.9 23.8,2.9 23.7,2.9 C17,2.9 10.2,2.9 3.5,2.9 C2.9,2.9 2.8,3 2.8,3.6 C2.8,16.5 2.8,29.4 2.8,42.3 C2.8,42.8 2.9,43 3.5,43 C12.5,43 21.5,43 30.6,43 C31.1,43 31.3,42.9 31.3,42.3 C31.3,31.9 31.3,21.5 31.3,11.1 C31.3,10.8 31.2,10.7 30.9,10.7 C29.1,10.7 27.4,10.7 25.6,10.7 C24.7,10.7 24.1,10.2 24.1,9.2 C24.1,7.2 24.1,5.3 24.1,3.3 C24.1,3.2 24.1,3.1 24.1,2.9 Z M26.5,4.8 C26.4,4.8 26.4,4.8 26.5,4.8 C26.4,6 26.4,7.1 26.4,8.2 C26.4,8.5 26.5,8.5 26.7,8.5 C27.5,8.5 28.2,8.5 29,8.5 C29.2,8.5 29.5,8.5 29.7,8.5 C29.7,8.5 29.7,8.4 29.7,8.4 C28.7,7.1 27.6,6 26.5,4.8 Z" id="Shape" fill="#FFFFFF"></path>
            <path d="M18.4,13.7 C18.4,13.8 18.4,13.9 18.4,14 C18.4,15.4 18.4,16.9 18.4,18.3 C18.4,19 18.8,19.4 19.5,19.4 C20.8,19.4 22.1,19.4 23.4,19.4 C23.6,19.4 23.7,19.5 23.7,19.7 C23.7,27.3 23.7,34.9 23.7,42.5 C23.7,42.9 23.6,43 23.2,43 C16.6,43 10,43 3.4,43 C3,43 2.9,42.9 2.9,42.5 C2.9,33.1 2.9,23.6 2.9,14.2 C2.9,13.8 3,13.7 3.4,13.7 C8.3,13.7 13.2,13.7 18.2,13.7 C18.2,13.7 18.2,13.7 18.4,13.7 Z M12.9,30.5 C15.2,30.5 17.5,30.5 19.8,30.5 C19.9,30.5 20.1,30.5 20.2,30.5 C20.5,30.4 20.7,30.2 20.7,29.9 C20.7,29.5 20.4,29.3 19.9,29.3 C15.3,29.3 10.6,29.3 6,29.3 C5.9,29.3 5.8,29.3 5.6,29.3 C5.4,29.4 5.2,29.5 5.2,29.8 C5.2,30.1 5.2,30.3 5.5,30.4 C5.7,30.5 5.9,30.5 6,30.5 C8.3,30.5 10.6,30.5 12.9,30.5 Z M12.9,25.2 C10.6,25.2 8.3,25.2 6,25.2 C5.9,25.2 5.8,25.2 5.7,25.2 C5.2,25.3 5,25.8 5.3,26.2 C5.5,26.5 5.7,26.5 6,26.5 C10.6,26.5 15.2,26.5 19.8,26.5 C19.9,26.5 20,26.5 20.1,26.5 C20.3,26.5 20.5,26.3 20.6,26.1 C20.7,25.9 20.7,25.6 20.4,25.5 C20.2,25.4 20,25.3 19.8,25.3 C17.6,25.2 15.3,25.2 12.9,25.2 Z M12.9,33.4 C10.6,33.4 8.3,33.4 6,33.4 C5.9,33.4 5.7,33.4 5.6,33.4 C5.4,33.5 5.2,33.7 5.1,33.9 C5.1,34.1 5.2,34.4 5.5,34.5 C5.6,34.5 5.8,34.6 6,34.6 C10.6,34.6 15.2,34.6 19.9,34.6 C20,34.6 20.1,34.6 20.2,34.6 C20.5,34.6 20.6,34.4 20.7,34.2 C20.8,34 20.7,33.7 20.5,33.6 C20.3,33.5 20.1,33.5 19.9,33.5 C17.5,33.4 15.2,33.4 12.9,33.4 Z M12.9,22.2 C15.2,22.2 17.5,22.2 19.8,22.2 C19.9,22.2 20,22.2 20.2,22.2 C20.5,22.1 20.7,21.9 20.7,21.6 C20.7,21.2 20.4,21 19.9,21 C15.3,21 10.7,21 6.1,21 C6,21 5.8,21 5.7,21 C5.4,21.1 5.3,21.2 5.2,21.5 C5.2,21.8 5.3,22 5.5,22.1 C5.6,22.2 5.8,22.2 6,22.2 C8.3,22.2 10.6,22.2 12.9,22.2 Z" id="Shape" fill="#BF2A61"></path>
            <path d="M16.6,25.9 C13.5,25.9 10.3,25.9 7.2,25.9 C6.9,25.9 6.7,25.9 6.5,25.7 C6.2,25.5 6.1,25.2 6.1,24.9 C6.2,24.6 6.4,24.3 6.7,24.2 C6.9,24.2 7,24.1 7.2,24.1 C13.6,24.1 19.9,24.1 26.3,24.1 C27,24.1 27.4,24.4 27.4,25 C27.4,25.4 27.1,25.7 26.7,25.8 C26.5,25.8 26.3,25.8 26.2,25.8 C22.9,25.9 19.8,25.9 16.6,25.9 Z" id="Path" fill="#FFFFFF"></path>
            <path d="M16.7,18.6 C19.9,18.6 23,18.6 26.2,18.6 C26.5,18.6 26.8,18.7 27,18.8 C27.3,19 27.3,19.3 27.2,19.7 C27.1,20 26.9,20.2 26.6,20.3 C26.4,20.3 26.3,20.3 26.1,20.3 C19.8,20.3 13.5,20.3 7.2,20.3 C6.8,20.3 6.5,20.3 6.2,19.9 C5.8,19.4 6.1,18.7 6.8,18.6 C7,18.6 7.1,18.6 7.3,18.6 C10.4,18.6 13.5,18.6 16.7,18.6 Z" id="Path" fill="#FFFFFF"></path>
            <path d="M16.7,29.9 C19.8,29.9 23,29.9 26.1,29.9 C26.4,29.9 26.7,30 26.9,30.1 C27.2,30.3 27.3,30.6 27.2,31 C27.1,31.3 26.9,31.5 26.5,31.6 C26.4,31.6 26.2,31.6 26.1,31.6 C19.8,31.6 13.5,31.6 7.1,31.6 C6.9,31.6 6.7,31.6 6.5,31.5 C6.2,31.4 6,31 6,30.7 C6,30.4 6.3,30 6.6,30 C6.8,30 7,29.9 7.1,29.9 C10.4,29.9 13.5,29.9 16.7,29.9 Z" id="Path" fill="#FFFFFF"></path>
            <path d="M16.6,14.5 C13.4,14.5 10.3,14.5 7.1,14.5 C6.9,14.5 6.6,14.5 6.4,14.4 C6.1,14.2 5.9,13.9 6,13.6 C6.1,13.2 6.3,13 6.6,12.9 C6.8,12.9 7,12.9 7.1,12.9 C13.4,12.9 19.7,12.9 26,12.9 C26.7,12.9 27.1,13.2 27.1,13.8 C27.1,14.2 26.8,14.5 26.4,14.6 C26.2,14.6 26.1,14.6 25.9,14.6 C22.9,14.5 19.8,14.5 16.6,14.5 Z" id="Path" fill="#FFFFFF"></path>
        </g>
        <g id="Group" transform="translate(302.000000, 74.000000)">
            <path d="M23,34.6 C16.7,34.6 10.4,34.6 4.1,34.6 C2.5,34.6 1.2,33.6 0.9,32.1 C0.8,31.8 0.8,31.5 0.8,31.2 C0.8,22.2 0.8,13.2 0.8,4.1 C0.8,2.5 1.8,1.2 3.2,0.9 C3.5,0.8 3.8,0.8 4.1,0.8 C16.7,0.8 29.4,0.8 42,0.8 C43.9,0.8 45.2,2.2 45.2,4.1 C45.2,13.2 45.2,22.2 45.2,31.3 C45.2,33.2 43.8,34.6 41.9,34.6 C36.2,34.6 30.5,34.6 24.8,34.6 C24.2,34.6 23.6,34.6 23,34.6 Z" id="Path" fill="#FFFFFF" fill-rule="nonzero"></path>
            <path d="M23,42 C21.1,42 19.3,42 17.4,42 C17.3,42 17.1,42 17,42 C16.5,41.9 16.3,41.5 16.5,41.1 C17,39.5 17.6,37.9 18.1,36.2 C18.2,36 18.3,35.9 18.5,35.9 C21.6,35.9 24.7,35.9 27.8,35.9 C28,35.9 28.1,36 28.2,36.2 C28.7,37.8 29.2,39.4 29.8,41 C30,41.6 29.7,42 29.1,42 C28.3,42 27.6,42 26.8,42 C25.4,42 24.2,42 23,42 Z" id="Path" fill="#FFFFFF" fill-rule="nonzero"></path>
            <path d="M22.9,3 C29.3,3 35.8,3 42.2,3 C42.7,3 42.7,3 42.7,3.5 C42.7,12.7 42.7,21.8 42.7,31 C42.7,31.5 42.7,31.5 42.2,31.5 C29.3,31.5 16.5,31.5 3.6,31.5 C3.1,31.5 3.1,31.5 3.1,31 C3.1,21.8 3.1,12.7 3.1,3.5 C3.1,3 3.1,3 3.6,3 C10.1,3 16.5,3 22.9,3 Z" id="Path" fill="#BF2A61" fill-rule="nonzero"></path>
            <circle id="Oval" fill="#FFFFFF" fill-rule="nonzero" cx="16.4" cy="12.1" r="3.2"></circle>
            <circle id="Oval" fill="#FFFFFF" fill-rule="nonzero" cx="31.6" cy="17.6" r="2.2"></circle>
            <circle id="Oval" fill="#FFFFFF" fill-rule="nonzero" cx="20" cy="22" r="2.2"></circle>
            <polyline id="Path" stroke="#FFFFFF" points="16.4 12.1 31.6 17.6 19.6 22"></polyline>
        </g>
        <g id="Group" transform="translate(336.000000, 326.000000)">
            <path d="M24.1,4 L24.1,20.3" id="Path" stroke="#FFFFFF" stroke-width="1.0768"></path>
            <path d="M4,14.8 L14.9,22.7" id="Path" stroke="#FFFFFF" stroke-width="1.0768"></path>
            <path d="M41.3,16 L33.2,23.4" id="Path" stroke="#FFFFFF" stroke-width="1.0768"></path>
            <path d="M0.4,13.7 C0.6,13.4 0.8,13.1 1,12.8 C2,11.4 3.4,10.8 5,11.3 C6.6,11.8 7.6,13 7.5,14.8 C7.5,16.5 6.6,17.6 5,18.1 C3.3,18.6 2,18 1,16.6 C0.8,16.3 0.6,16 0.4,15.7 C0.4,15.2 0.4,14.4 0.4,13.7 Z M6.2,14.9 C6.1,13.7 5.5,12.8 4.1,12.7 C2.9,12.6 2,13.4 1.9,14.6 C1.8,15.9 2.5,16.8 3.8,16.9 C5.1,17 5.9,16.2 6.2,14.9 Z" id="Shape" fill="#FFFFFF" fill-rule="nonzero"></path>
            <path d="M0.4,39.6 C0.6,39.3 0.8,39 1,38.7 C2,37.3 3.4,36.7 5,37.2 C6.6,37.7 7.6,38.9 7.5,40.7 C7.5,42.4 6.6,43.5 5,44 C3.3,44.5 2,43.9 1,42.5 C0.8,42.2 0.6,41.9 0.4,41.6 C0.4,41 0.4,40.3 0.4,39.6 Z M4,42.8 C5.3,42.6 6.1,42 6.1,40.6 C6.1,39.4 5.3,38.6 4.1,38.5 C2.8,38.4 1.9,39.2 1.9,40.5 C1.8,41.9 2.7,42.6 4,42.8 Z" id="Shape" fill="#FFFFFF" fill-rule="nonzero"></path>
            <path d="M23,53.6 C22.7,53.4 22.4,53.2 22.1,53 C20.7,52 20.1,50.6 20.6,49 C21.1,47.4 22.3,46.4 24.1,46.5 C25.8,46.5 26.9,47.4 27.4,49 C27.9,50.7 27.3,52 25.9,53 C25.6,53.2 25.3,53.4 25,53.6 C24.4,53.6 23.7,53.6 23,53.6 Z M26.2,50 C26.1,48.7 25.4,47.8 24.1,47.8 C22.8,47.8 22,48.5 22,49.8 C21.9,51.1 22.7,52 24,52.1 C25.3,52.2 26,51.3 26.2,50 Z" id="Shape" fill="#FFFFFF" fill-rule="nonzero"></path>
            <path d="M24,19.1 C26.6,19.1 29.3,19.1 31.9,19.1 C33.5,19.1 34.2,19.6 34.2,21.3 C34.1,25.6 34.1,29.9 34.2,34.2 C34.2,35.8 33.5,36.4 31.9,36.4 C26.7,36.4 21.5,36.4 16.3,36.4 C14.7,36.4 14,35.8 14,34.2 C14.1,29.9 14.1,25.6 14,21.3 C14,19.6 14.7,19.1 16.3,19.1 C18.9,19.1 21.4,19.1 24,19.1 Z M32.7,20.6 C26.9,20.6 21.3,20.6 15.6,20.6 C15.6,25.4 15.6,30.1 15.6,34.7 C21.4,34.7 27,34.7 32.7,34.7 C32.7,30 32.7,25.4 32.7,20.6 Z" id="Shape" fill="#FFFFFF" fill-rule="nonzero"></path>
            <path d="M27.7,4.2 C27.6,6.1 25.9,7.7 24,7.6 C22,7.5 20.4,5.8 20.5,3.8 C20.6,1.9 22.3,0.4 24.3,0.5 C26.2,0.6 27.7,2.3 27.7,4.2 Z M24.1,6.2 C25.4,6 26.2,5.4 26.2,4 C26.2,2.8 25.4,2 24.2,1.9 C22.9,1.8 22,2.6 22,4 C21.9,5.3 22.8,6 24.1,6.2 Z" id="Shape" fill="#FFFFFF" fill-rule="nonzero"></path>
            <path d="M43.2,10.4 C45.1,10.4 46.8,12 46.8,13.9 C46.9,15.9 45.2,17.6 43.2,17.6 C41.3,17.6 39.7,16 39.7,14 C39.7,12 41.3,10.4 43.2,10.4 Z M45.4,14 C45.3,12.7 44.6,11.9 43.2,11.8 C41.9,11.8 41.2,12.6 41.1,13.8 C41,15.1 41.8,16 43.1,16 C44.5,16.1 45.2,15.3 45.4,14 Z" id="Shape" fill="#FFFFFF" fill-rule="nonzero"></path>
            <path d="M44.2,37.1 C46.1,37.1 47.7,38.7 47.8,40.6 C47.8,42.6 46.1,44.3 44.1,44.2 C42.2,44.1 40.6,42.5 40.6,40.6 C40.6,38.7 42.3,37.1 44.2,37.1 Z M44.2,42.8 C45.5,42.6 46.3,41.9 46.3,40.6 C46.3,39.4 45.5,38.6 44.3,38.5 C43,38.5 42.1,39.2 42.1,40.6 C42,41.9 42.9,42.6 44.2,42.8 Z" id="Shape" fill="#FFFFFF" fill-rule="nonzero"></path>
            <path d="M6.2,14.9 C5.9,16.2 5.2,17.1 3.8,16.9 C2.5,16.8 1.7,15.9 1.9,14.6 C2,13.4 2.8,12.6 4.1,12.7 C5.4,12.7 6,13.6 6.2,14.9 Z" id="Path" fill="#BF2A61" fill-rule="nonzero"></path>
            <path d="M4,42.8 C2.7,42.6 1.9,41.9 1.9,40.6 C2,39.3 2.8,38.5 4.1,38.6 C5.3,38.7 6.1,39.4 6.1,40.7 C6.1,42 5.3,42.6 4,42.8 Z" id="Path" fill="#BF2A61" fill-rule="nonzero"></path>
            <path d="M26.2,50 C26,51.3 25.3,52.1 23.9,52 C22.6,51.9 21.8,51.1 21.9,49.7 C22,48.5 22.8,47.7 24,47.7 C25.5,47.9 26.1,48.7 26.2,50 Z" id="Path" fill="#BF2A61" fill-rule="nonzero"></path>
            <path d="M32.7,20.6 C32.7,25.4 32.7,30 32.7,34.7 C27,34.7 21.4,34.7 15.6,34.7 C15.6,30.1 15.6,25.4 15.6,20.6 C21.2,20.6 26.9,20.6 32.7,20.6 Z M23.9,23.4 C25,23.4 26.2,23.5 27.3,23.4 C27.6,23.4 28,22.9 28.3,22.7 C28,22.5 27.7,22.1 27.4,22.1 C25.2,22 23,22 20.8,22.1 C20.5,22.1 20.2,22.5 19.9,22.7 C20.2,22.9 20.6,23.4 20.9,23.4 C21.9,23.5 22.9,23.4 23.9,23.4 Z" id="Shape" fill="#BF2A61" fill-rule="nonzero"></path>
            <path d="M24.1,6.2 C22.8,6 22,5.3 22,4 C22,2.7 22.9,1.9 24.2,1.9 C25.4,2 26.2,2.7 26.2,4 C26.2,5.3 25.4,6 24.1,6.2 Z" id="Path" fill="#BF2A61" fill-rule="nonzero"></path>
            <path d="M45.4,14 C45.2,15.3 44.5,16.1 43.2,16.1 C41.9,16 41.1,15.2 41.2,13.9 C41.3,12.7 42.1,11.9 43.3,11.9 C44.6,11.8 45.3,12.7 45.4,14 Z" id="Path" fill="#BF2A61" fill-rule="nonzero"></path>
            <path d="M44.2,42.8 C42.9,42.6 42.1,41.9 42.1,40.6 C42.1,39.3 43,38.5 44.3,38.5 C45.5,38.5 46.3,39.3 46.3,40.6 C46.3,41.9 45.5,42.6 44.2,42.8 Z" id="Path" fill="#BF2A61" fill-rule="nonzero"></path>
            <path d="M23.9,23.4 C22.9,23.4 21.9,23.5 20.9,23.4 C20.5,23.4 20.2,22.9 19.9,22.7 C20.2,22.5 20.5,22.1 20.8,22.1 C23,22 25.2,22 27.4,22.1 C27.7,22.1 28,22.5 28.3,22.7 C28,23 27.7,23.4 27.3,23.4 C26.2,23.5 25.1,23.4 23.9,23.4 Z" id="Path" fill="#FFFFFF" fill-rule="nonzero"></path>
            <path d="M6.2,39 L14.9,30.9" id="Path" stroke="#FFFFFF" stroke-width="1.0768"></path>
            <path d="M24.1,47.9 L24.1,35.7" id="Path" stroke="#FFFFFF" stroke-width="1.0768"></path>
            <path d="M42.7,38.5 L33.2,31.8" id="Path" stroke="#FFFFFF" stroke-width="1.0768"></path>
        </g>
        <path d="M99.6,248.4 C99.1,250 99.9,250.9 101.1,252 C104.3,254.8 104.9,259.4 102.7,262.9 C100.4,266.5 96,268 92,266.4 C91.1,266 90.5,266.1 89.7,266.6 C82.6,270.7 75.5,270.6 68.4,266.6 C67.6,266.2 67.1,266.1 66.2,266.4 C62,268.1 57.5,266.6 55.3,262.7 C53.2,259 54.1,254.3 57.6,251.6 C58.3,251.1 58.6,250.6 58.6,249.7 C58.5,241.4 62.2,235.2 69.4,231 C69.9,230.7 70.3,230 70.4,229.5 C70.9,225.2 74.7,221.8 79.1,221.8 C83.4,221.8 87.3,225.2 87.6,229.4 C87.7,230.3 88.1,230.7 88.8,231.2 C95.6,234.8 99,240.6 99.6,248.4 Z M62.3,249.5 C65.8,249.6 68.6,250.8 70.4,253.9 C72.2,257 71.9,260.1 70.2,263.1 C75.2,266.7 83.5,266.6 87.9,263 C86.2,260 86,256.9 87.7,253.9 C89.4,250.8 92.3,249.6 95.7,249.5 C96.3,243.5 91.8,235.8 86.8,234.2 C83.2,240.3 75.1,240.7 71.1,234.2 C65.9,236.4 61.9,243.3 62.3,249.5 Z M74,230.3 C74,233 76.3,235.3 79,235.3 C81.7,235.3 84.1,233 84,230.2 C84,227.5 81.7,225.3 79,225.3 C76.3,225.3 74,227.6 74,230.3 Z M95.2,263.2 C97.9,263.2 100.2,261 100.2,258.3 C100.2,255.6 97.9,253.3 95.2,253.2 C92.5,253.1 90.2,255.5 90.2,258.3 C90.3,261.1 92.4,263.2 95.2,263.2 Z M67.8,258.3 C67.8,255.5 65.6,253.3 62.9,253.2 C60.2,253.1 57.8,255.5 57.8,258.3 C57.8,261 60.1,263.2 62.8,263.2 C65.7,263.2 67.8,261.1 67.8,258.3 Z" id="Shape" fill="#FFFFFF" fill-rule="nonzero"></path>
        <g id="Group" transform="translate(647.000000, 362.000000)">
            <polyline id="Path" stroke="#4478BA" stroke-width="1.5" points="2.3 6.9 35.8 6.9 35.8 220.8 54.7 220.8"></polyline>
            <polygon id="Path" fill="#4478BA" fill-rule="nonzero" points="7.3 13 8.3 11.9 2.9 6.9 8.3 1.9 7.3 0.8 0.7 6.9"></polygon>
            <polygon id="Path" fill="#4478BA" fill-rule="nonzero" points="49.7 227 48.7 225.9 54.1 220.8 48.7 215.8 49.7 214.7 56.3 220.8"></polygon>
        </g>
        <g id="Group" transform="translate(647.000000, 231.000000)">
            <polyline id="Path" stroke="#4478BA" stroke-width="1.5" points="2.3 103.3 36.6 103.3 36.6 6.4 51.5 6.4"></polyline>
            <polygon id="Path" fill="#4478BA" fill-rule="nonzero" points="7.3 109.4 8.3 108.3 2.9 103.3 8.3 98.2 7.3 97.1 0.7 103.3"></polygon>
            <polygon id="Path" fill="#4478BA" fill-rule="nonzero" points="46.5 12.6 45.5 11.5 50.9 6.4 45.5 1.4 46.5 0.3 53.1 6.4"></polygon>
        </g>
        <g id="Group" transform="translate(772.000000, 235.000000)">
            <polyline id="Path" stroke="#4478BA" stroke-width="1.5" points="1.7 100.7 23.1 100.7 23.1 7 47.7 7"></polyline>
            <polygon id="Path" fill="#4478BA" fill-rule="nonzero" points="6.7 106.8 7.7 105.8 2.3 100.7 7.7 95.7 6.7 94.6 0.1 100.7"></polygon>
            <polygon id="Path" fill="#4478BA" fill-rule="nonzero" points="42.7 13.2 41.7 12.1 47.1 7 41.7 2 42.7 0.9 49.3 7"></polygon>
        </g>
        <g id="Group" transform="translate(772.000000, 367.000000)">
            <polyline id="Path" stroke="#4478BA" stroke-width="1.5" points="1.7 6.3 23.1 6.3 23.1 89.2 49.9 89.2"></polyline>
            <polygon id="Path" fill="#4478BA" fill-rule="nonzero" points="6.7 12.4 7.7 11.3 2.3 6.3 7.7 1.2 6.7 0.1 0.1 6.3"></polygon>
            <polygon id="Path" fill="#4478BA" fill-rule="nonzero" points="44.9 95.3 43.9 94.2 49.3 89.2 43.9 84.2 44.9 83.1 51.5 89.2"></polygon>
        </g>
        <g id="Group" transform="translate(695.000000, 422.000000)">
            <polyline id="Path" stroke="#4478BA" stroke-width="1.5" points="42.6 2.1 42.6 80.8 0.7 80.8"></polyline>
            <polygon id="Path" fill="#4478BA" fill-rule="nonzero" points="36.5 7.1 37.6 8.1 42.6 2.7 47.7 8.1 48.8 7.1 42.6 0.5"></polygon>
        </g>
        <g id="Group" transform="translate(522.000000, 496.000000)">
            <path d="M2.4,6.8 L144.3,6.8" id="Path" stroke="#4478BA" stroke-width="1.5"></path>
            <polygon id="Path" fill="#4478BA" fill-rule="nonzero" points="7.4 12.9 8.4 11.8 3 6.8 8.4 1.8 7.4 0.7 0.8 6.8"></polygon>
        </g>
        <path d="M666.3,502.8 C666.7,502.2 672,495 681.3,495.2 C690.2,495.4 695.1,502.1 695.6,502.8" id="Path" stroke="#4478BA" stroke-width="1.5" stroke-linecap="round"></path>
        <g class="flowStep" transform="translate(445.000000, 300.000000)">
            <circle id="dbacm_step5" fill="#808384" fill-rule="nonzero" cx="12.6" cy="12.8" r="12.5"></circle>
            <text id="5" fill="#FFFFFF" font-family="Helvetica" font-size="16" font-weight="normal">
                <tspan x="8.3492" y="18.564">5</tspan>
            </text>
        </g>
        <g class="flowStep" transform="translate(317.000000, 300.000000)">
            <circle id="dbacm_step4" fill="#808384" fill-rule="nonzero" cx="13.1" cy="12.8" r="12.5"></circle>
            <text id="4" fill="#FFFFFF" font-family="Helvetica" font-size="16" font-weight="normal">
                <tspan x="7.8006" y="18.5605">4</tspan>
            </text>
        </g>
        <g class="flowStep" transform="translate(503.000000, 300.000000)">
            <circle id="dbacm_step10" fill="#808184" fill-rule="nonzero" cx="12.6" cy="12.8" r="12.5"></circle>
            <text id="10" fill="#FFFFFF" font-family="Helvetica" font-size="15.9999" font-weight="normal">
                <tspan x="3.8152" y="18.5843">10</tspan>
            </text>
        </g>
        <g class="flowStep" transform="translate(24.000000, 209.000000)">
            <circle id="dbacm_step12" fill="#808184" fill-rule="nonzero" cx="13.3" cy="12.8" r="12.5"></circle>
            <text id="12" fill="#FFFFFF" font-family="Helvetica" font-size="15.9999" font-weight="normal">
                <tspan x="4.5115" y="18.5249">12</tspan>
            </text>
        </g>
        <g class="flowStep" transform="translate(445.000000, 630.000000)">
            <circle id="dbacm_step13" fill="#808184" fill-rule="nonzero" cx="12.6" cy="12.5" r="12.5"></circle>
            <text id="13" fill="#FFFFFF" font-family="Helvetica" font-size="15.9999" font-weight="normal">
                <tspan x="3.6263" y="17.6854">13</tspan>
            </text>
        </g>
        <g class="flowStep" transform="translate(697.000000, 527.000000)">
            <circle id="dbacm_step11" fill="#808184" fill-rule="nonzero" cx="12.7" cy="13.4" r="12.5"></circle>
            <text id="11" fill="#FFFFFF" font-family="Helvetica" font-size="16" font-weight="normal">
                <tspan x="4.0305" y="18.7997">11</tspan>
            </text>
        </g>
        <g class="flowStep" transform="translate(331.000000, 629.000000)">
            <circle id="dbacm_step8" fill="#808184" fill-rule="nonzero" cx="12.5" cy="12.9" r="12.5"></circle>
            <text id="8" fill="#FFFFFF" font-family="Helvetica" font-size="15.9999" font-weight="normal">
                <tspan x="8.1165" y="18.6066">8</tspan>
            </text>
        </g>
        <g class="flowStep" transform="translate(753.000000, 187.000000)">
            <circle id="dbacm_step9" fill="#808184" fill-rule="nonzero" cx="12.7" cy="12.6" r="12.5"></circle>
            <text id="9" fill="#FFFFFF" font-family="Helvetica" font-size="15.9999" font-weight="normal">
                <tspan x="8.4235" y="18.254">9</tspan>
            </text>
        </g>
        <g class="flowStep" transform="translate(445.000000, 451.000000)">
            <circle id="dbacm_step7" fill="#808184" fill-rule="nonzero" cx="12.6" cy="12.9" r="12.5"></circle>
            <text id="7" fill="#FFFFFF" font-family="Helvetica" font-size="15.9999" font-weight="normal">
                <tspan x="8.3914" y="18.6057">7</tspan>
            </text>
        </g>
    </g>
</svg>